<?xml version="1.0" encoding="UTF-8"?>
<svg version="1.1" xmlns="http://www.w3.org/2000/svg" width="1024" height="1024">
<path d="M0 0 C0.90356232 0.84823334 1.80712463 1.69646667 2.73806763 2.57040405 C8.37708228 6.5644766 15.18499995 5.676797 21.80786133 5.61181641 C23.3130255 5.61536064 24.81818582 5.62114173 26.32333374 5.62898254 C29.55372273 5.64112912 32.78358291 5.63773355 36.01395607 5.62215042 C41.11896743 5.59779616 46.22351727 5.60934189 51.32853699 5.62582397 C60.31544453 5.65028354 69.30214096 5.64452539 78.2890625 5.63201904 C91.83755547 5.61340405 105.38600983 5.61822013 118.93447322 5.65205324 C124.01282206 5.66358948 129.09083499 5.65909976 134.16916525 5.64203286 C137.32028304 5.63415919 140.47130206 5.63837052 143.62241745 5.64574242 C145.08740452 5.64655547 146.55240472 5.64216773 148.01735878 5.63229942 C150.01090611 5.61951553 152.00455202 5.62664434 153.99812317 5.63491821 C155.11546247 5.63303308 156.23280176 5.63114796 157.38399982 5.6292057 C158.24727988 5.75156782 159.11055994 5.87392994 160 6 C162.81868724 10.22803086 161.9418029 13.16186737 161 18 C158.81818182 26.18181818 158.81818182 26.18181818 156 29 C151.33256397 29.2798223 146.67336054 29.08497019 142 29 C142.17312462 30.28826439 142.17312462 30.28826439 142.3497467 31.60255432 C143.87932479 43.36879747 145.03243258 55.162347 146.15691948 66.97334099 C146.62284057 71.85544729 147.09687503 76.73675612 147.5703516 81.6181345 C148.44826137 90.6699953 149.32287731 99.72214462 150.18383789 108.77563477 C150.78656003 115.11029739 151.39953313 121.44389607 152.01924324 127.77691841 C152.25225263 130.17781919 152.48148541 132.57908973 152.7067852 134.98072624 C153.02195418 138.33574644 153.35020443 141.68925352 153.68139648 145.04272461 C153.77032669 146.02316238 153.8592569 147.00360016 153.95088196 148.01374817 C155.03043727 158.640407 158.43483142 170.2344039 165.33007812 178.64306641 C169.66334198 182.16416005 175.73828495 181.23659231 180.98828125 180.91796875 C184.03214951 180.81243507 184.76177487 180.84376144 187.40625 182.578125 C192.19722911 189.85853444 194.66323187 201.28650542 194 210 C193.3642189 211.80205472 192.72683175 213.60363826 192.06884766 215.39770508 C187.80344895 227.93725688 193.56433341 237.79870844 198.59867859 249.30726624 C201.5603433 256.14706093 203.92682745 263.15231295 206.1875 270.25 C206.39260193 270.89214447 206.59770386 271.53428894 206.809021 272.19589233 C222.89874842 322.92184188 230.45883274 375.26609242 230.3125 428.4375 C230.31027727 429.86626173 230.30810077 431.29502353 230.30596924 432.7237854 C230.26347689 453.28453499 229.91849334 473.60696278 227 494 C226.90054077 494.7130127 226.80108154 495.42602539 226.6986084 496.16064453 C219.88594288 544.95980701 207.21192617 592.96778374 187 638 C186.47535156 639.18851563 185.95070313 640.37703125 185.41015625 641.6015625 C167.97085482 680.06183119 145.43309805 716.10348001 119 749 C118.24976563 749.93457031 117.49953125 750.86914062 116.7265625 751.83203125 C111.067559 758.80874496 105.22867056 765.62801418 99.35546875 772.42431641 C98.14498363 773.83146175 96.94664269 775.24903306 95.75 776.66796875 C95.13125 777.39628906 94.5125 778.12460937 93.875 778.875 C93.35679687 779.49117187 92.83859375 780.10734375 92.3046875 780.7421875 C91 782 91 782 89 782 C88.73123047 782.59329102 88.46246094 783.18658203 88.18554688 783.79785156 C86.99709268 786.00540033 85.79257611 787.46542882 84.03125 789.234375 C83.46019531 789.80800781 82.88914062 790.38164063 82.30078125 790.97265625 C81.40939453 791.85244141 81.40939453 791.85244141 80.5 792.75 C79.90574219 793.35199219 79.31148437 793.95398438 78.69921875 794.57421875 C77.84263672 795.42693359 77.84263672 795.42693359 76.96875 796.296875 C76.44732422 796.81604492 75.92589844 797.33521484 75.38867188 797.87011719 C74 799 74 799 72 799 C72 799.66 72 800.32 72 801 C70.671875 802.33984375 70.671875 802.33984375 68.75 803.9375 C65.67097176 806.54951514 62.66253124 809.21448563 59.70556641 811.96435547 C53.67193063 817.57103728 47.46137676 822.88853529 41 828 C40.35289062 828.51433594 39.70578125 829.02867187 39.0390625 829.55859375 C15.0646061 848.57130368 -10.21713348 865.19550966 -37 880 C-37.71929688 880.40025391 -38.43859375 880.80050781 -39.1796875 881.21289062 C-92.47386497 910.72579834 -152.1853565 929.02523091 -212.375 937.25 C-213.47650391 937.40114258 -214.57800781 937.55228516 -215.71289062 937.70800781 C-237.54672767 940.50835229 -259.31387283 941.37786028 -281.3125 941.3125 C-282.62427216 941.31034485 -283.93604431 941.3081897 -285.28756714 941.30596924 C-318.54280894 941.23205154 -350.38642308 938.42076945 -383 932 C-384.20446777 931.76410156 -385.40893555 931.52820313 -386.64990234 931.28515625 C-439.92869337 920.62488098 -491.47970028 900.82466613 -538.40478516 873.50634766 C-540.74432255 872.14840356 -543.09379241 870.81058556 -545.44921875 869.48046875 C-569.92187068 855.54904245 -592.82026719 838.52445658 -614 820 C-614.72960937 819.36964844 -615.45921875 818.73929688 -616.2109375 818.08984375 C-620.77059478 814.13393555 -625.24044001 810.08036356 -629.703125 806.015625 C-631.93914975 803.98573474 -631.93914975 803.98573474 -634.296875 802.359375 C-635.13992188 801.68648437 -635.13992188 801.68648437 -636 801 C-636 800.34 -636 799.68 -636 799 C-636.58934326 798.73590332 -637.17868652 798.47180664 -637.78588867 798.19970703 C-640.08447149 796.95422948 -641.58939517 795.65447786 -643.42578125 793.8046875 C-644.05395752 793.17530273 -644.68213379 792.54591797 -645.3293457 791.89746094 C-645.98378662 791.23004883 -646.63822754 790.56263672 -647.3125 789.875 C-647.98821045 789.19211914 -648.6639209 788.50923828 -649.36010742 787.80566406 C-653.15128291 783.95247371 -656.8614376 780.06347348 -660.34765625 775.9296875 C-662.41558631 773.51465807 -664.58607434 771.20434275 -666.75 768.875 C-671.49875287 763.6671532 -675.85233192 758.22300397 -680.16015625 752.6484375 C-682.03096799 750.22936232 -683.93228548 747.84147526 -685.87109375 745.4765625 C-704.50810982 722.71113292 -719.88611937 697.75869697 -734 672 C-734.5053125 671.0826709 -735.010625 670.1653418 -735.53125 669.22021484 C-763.83376919 617.52573725 -781.38857686 560.1437738 -789.8125 501.9375 C-789.91195923 501.25843597 -790.01141846 500.57937195 -790.1138916 499.87973022 C-793.49229938 476.48771174 -794.37748123 453.17405216 -794.3125 429.5625 C-794.31027727 428.13373827 -794.30810077 426.70497647 -794.30596924 425.2762146 C-794.26347689 404.71546501 -793.91849334 384.39303722 -791 364 C-790.90054077 363.2869873 -790.80108154 362.57397461 -790.6986084 361.83935547 C-781.22788108 294.00048093 -759.71306444 229.16663087 -725 170 C-724.48405273 169.1140918 -723.96810547 168.22818359 -723.43652344 167.31542969 C-716.75658006 155.86833942 -709.72745567 144.76822342 -702 134 C-701.46648926 133.25395508 -700.93297852 132.50791016 -700.38330078 131.73925781 C-692.03235599 120.10818723 -683.23381668 108.93982729 -674 98 C-673.00507346 96.80870638 -672.01027642 95.61730459 -671.015625 94.42578125 C-658.45200206 79.47684782 -645.04038118 64.60684004 -630.18359375 51.90234375 C-627.99205464 49.99307802 -625.85658184 48.02991844 -623.7265625 46.05249023 C-617.67987399 40.44414828 -611.45604732 35.13688203 -605 30 C-604.48775879 29.58814453 -603.97551758 29.17628906 -603.44775391 28.75195312 C-581.61018695 11.19742665 -558.46724465 -4.35341687 -534 -18 C-533.04416016 -18.53737793 -532.08832031 -19.07475586 -531.10351562 -19.62841797 C-481.03169395 -47.66383889 -426.74573702 -66.35743861 -370.30078125 -76.41113281 C-367.56130316 -76.89986219 -364.82741342 -77.40982416 -362.09375 -77.9296875 C-357.41418659 -78.78560223 -352.72214937 -79.42821573 -348 -80 C-346.90107422 -80.13535156 -345.80214844 -80.27070312 -344.66992188 -80.41015625 C-248.98944431 -91.57204065 -153.09386235 -75.99878692 0 0 Z M54 41 C54.78826172 41.95503418 55.57652344 42.91006836 56.38867188 43.89404297 C56.83206909 44.43124969 57.27546631 44.96845642 57.7322998 45.52194214 C59.20047398 47.23373992 60.76688562 48.68336395 62.5 50.125 C74.02344841 59.97428704 85.31870427 70.36079635 95.171875 81.89453125 C97.3102087 84.35727028 99.53084599 86.73487343 101.75 89.125 C106.56156665 94.3965495 110.95764298 99.92462892 115.32421875 105.56640625 C117.78244845 108.73966054 120.3164574 111.84433656 122.875 114.9375 C125.36490198 117.95394039 127.75698396 120.98319137 130 124.1875 C130.66 125.115625 131.32 126.04375 132 127 C132.33 127 132.66 127 133 127 C131.76979515 110.88401445 130.36267974 94.79293791 128.76782227 78.70898438 C128.43146472 75.31408512 128.0993109 71.9187915 127.76757812 68.5234375 C127.55232555 66.33591365 127.33683988 64.14841273 127.12109375 61.9609375 C126.9741935 60.45942642 126.9741935 60.45942642 126.82432556 58.92758179 C126.64153681 57.09166785 126.45198002 55.25640897 126.25411987 53.42205811 C126.09521147 51.90747613 125.95666367 50.39045994 125.84866333 48.87139893 C125.59455018 46.05671317 125.38179156 44.3903779 123.37028503 42.33363342 C120.2290975 40.56625413 117.99322984 40.63913592 114.39550781 40.65942383 C113.41439781 40.65876671 113.41439781 40.65876671 112.41346741 40.65809631 C110.25971225 40.66018003 108.10674352 40.68348985 105.953125 40.70703125 C104.45668971 40.71262873 102.96024891 40.71689811 101.46380615 40.71989441 C97.53127784 40.73133136 93.59908362 40.76078831 89.66668701 40.79400635 C85.65153523 40.82473222 81.63632929 40.83840511 77.62109375 40.85351562 C69.74724278 40.8856594 61.87366298 40.93684151 54 41 Z " fill="#FEFEEC" transform="translate(794,83)"/>
<path d="M0 0 C0.40914333 4.35585617 0.81806895 8.71173271 1.22680664 13.06762695 C1.365421 14.54452037 1.50409132 16.02140854 1.64282227 17.49829102 C2.44117532 25.99772478 3.23451516 34.49752833 4 43 C5.01815796 43.38369751 5.01815796 43.38369751 6.05688477 43.77514648 C19.41556991 48.85065538 32.11474879 53.99919674 44 62 C43.49688038 71.27735232 41.96393308 80.18068067 40 89.25 C39.84794098 89.95942749 39.69588196 90.66885498 39.53921509 91.39978027 C32.08624346 125.97634287 21.24549322 159.61405934 7 192 C6.70061523 192.68594238 6.40123047 193.37188477 6.09277344 194.07861328 C-11.09682616 233.15985433 -34.29159928 269.76086033 -61 303 C-61.75023437 303.93457031 -62.50046875 304.86914062 -63.2734375 305.83203125 C-68.932441 312.80874496 -74.77132944 319.62801418 -80.64453125 326.42431641 C-81.85501637 327.83146175 -83.05335731 329.24903306 -84.25 330.66796875 C-84.86875 331.39628906 -85.4875 332.12460937 -86.125 332.875 C-86.64320313 333.49117187 -87.16140625 334.10734375 -87.6953125 334.7421875 C-89 336 -89 336 -91 336 C-91.26876953 336.59329102 -91.53753906 337.18658203 -91.81445312 337.79785156 C-93.00290732 340.00540033 -94.20742389 341.46542882 -95.96875 343.234375 C-96.53980469 343.80800781 -97.11085938 344.38164063 -97.69921875 344.97265625 C-98.29347656 345.55917969 -98.88773438 346.14570312 -99.5 346.75 C-100.39138672 347.65298828 -100.39138672 347.65298828 -101.30078125 348.57421875 C-102.15736328 349.42693359 -102.15736328 349.42693359 -103.03125 350.296875 C-103.55267578 350.81604492 -104.07410156 351.33521484 -104.61132812 351.87011719 C-106 353 -106 353 -108 353 C-108 353.66 -108 354.32 -108 355 C-109.328125 356.33984375 -109.328125 356.33984375 -111.25 357.9375 C-114.32902824 360.54951514 -117.33746876 363.21448563 -120.29443359 365.96435547 C-126.32806937 371.57103728 -132.53862324 376.88853529 -139 382 C-139.97066406 382.77150391 -139.97066406 382.77150391 -140.9609375 383.55859375 C-164.9353939 402.57130368 -190.21713348 419.19550966 -217 434 C-217.71929688 434.40025391 -218.43859375 434.80050781 -219.1796875 435.21289062 C-272.47386497 464.72579834 -332.1853565 483.02523091 -392.375 491.25 C-393.47650391 491.40114258 -394.57800781 491.55228516 -395.71289062 491.70800781 C-417.54672767 494.50835229 -439.31387283 495.37786028 -461.3125 495.3125 C-462.62427216 495.31034485 -463.93604431 495.3081897 -465.28756714 495.30596924 C-498.54280894 495.23205154 -530.38642308 492.42076945 -563 486 C-564.20446777 485.76410156 -565.40893555 485.52820313 -566.64990234 485.28515625 C-619.92869337 474.62488098 -671.47970028 454.82466613 -718.40478516 427.50634766 C-720.74432255 426.14840356 -723.09379241 424.81058556 -725.44921875 423.48046875 C-749.92187068 409.54904245 -772.82026719 392.52445658 -794 374 C-794.72960937 373.36964844 -795.45921875 372.73929688 -796.2109375 372.08984375 C-800.77059478 368.13393555 -805.24044001 364.08036356 -809.703125 360.015625 C-811.93914975 357.98573474 -811.93914975 357.98573474 -814.296875 356.359375 C-814.85890625 355.91078125 -815.4209375 355.4621875 -816 355 C-816 354.34 -816 353.68 -816 353 C-816.58934326 352.73590332 -817.17868652 352.47180664 -817.78588867 352.19970703 C-820.08447149 350.95422948 -821.58939517 349.65447786 -823.42578125 347.8046875 C-824.05395752 347.17530273 -824.68213379 346.54591797 -825.3293457 345.89746094 C-825.98378662 345.23004883 -826.63822754 344.56263672 -827.3125 343.875 C-827.98821045 343.19211914 -828.6639209 342.50923828 -829.36010742 341.80566406 C-833.15128291 337.95247371 -836.8614376 334.06347348 -840.34765625 329.9296875 C-842.41558631 327.51465807 -844.58607434 325.20434275 -846.75 322.875 C-851.49111677 317.67552753 -855.83838566 312.24032266 -860.140625 306.67578125 C-862.57866713 303.52369289 -865.07658162 300.42467599 -867.58935547 297.33203125 C-884 277.08614865 -884 277.08614865 -884 272 C-873.30637772 272.74101436 -862.62161575 273.57176791 -851.9375 274.4375 C-850.70821777 274.53646072 -850.70821777 274.53646072 -849.45410156 274.63742065 C-841.22920846 275.30025051 -833.0085202 275.9671687 -824.80102539 276.82275391 C-738.18589818 285.84726902 -646.97868787 285.10367057 -514.8125 262 C-513.79805817 261.757621 -513.79805817 261.757621 -512.76312256 261.51034546 C-502.7000636 259.09118424 -492.83710454 256.21280215 -483 253 C-482.32268829 252.7793689 -481.64537659 252.55873779 -480.94754028 252.3314209 C-475.99530376 250.7125568 -471.05651137 249.05588385 -466.125 247.375 C-465.37219757 247.11843628 -464.61939514 246.86187256 -463.84378052 246.59753418 C-450.54985426 242.04517692 -437.60380311 236.92785457 -424.75683594 231.22119141 C-422.20268321 230.08978227 -419.63947551 228.98351741 -417.0703125 227.88671875 C-406.9582735 223.53791765 -397.25699047 218.56977229 -387.56298828 213.36376953 C-384.88464328 211.93861853 -382.19301198 210.54200774 -379.49609375 209.15234375 C-368.81156742 203.64442192 -358.27053455 197.94872821 -347.828125 191.99462891 C-295.34239826 162.13053372 -295.34239826 162.13053372 -283.77490234 158.25439453 C-280.87086741 156.2019968 -280.88300332 153.56207377 -280.21875 150.1640625 C-280.07852417 149.4883017 -279.93829834 148.81254089 -279.79382324 148.11630249 C-279.34624488 145.95546869 -278.92082977 143.79119119 -278.5 141.625 C-278.07853405 139.46613097 -277.65191469 137.30911743 -277.20617676 135.15512085 C-276.80073017 133.19570499 -276.41642434 131.23195005 -276.03320312 129.26806641 C-274.89193025 125.65817068 -274.11816212 124.1339304 -271 122 C-267.88378906 121.54589844 -267.88378906 121.54589844 -264.265625 121.609375 C-262.32236328 121.62871094 -262.32236328 121.62871094 -260.33984375 121.6484375 C-258.97655176 121.68185634 -257.61327051 121.71571609 -256.25 121.75 C-254.87111936 121.77007293 -253.49221088 121.78832233 -252.11328125 121.8046875 C-248.74148256 121.85184552 -245.37109313 121.91765462 -242 122 C-241.98979438 120.42058657 -241.98256524 118.84115375 -241.9765625 117.26171875 C-241.97221191 116.38217529 -241.96786133 115.50263184 -241.96337891 114.59643555 C-241.95113441 112.06250548 -241.95113441 112.06250548 -242.27490234 109.81567383 C-242.39858687 107.34047495 -242.26864938 106.15236062 -241 104 C-238.36791992 102.34033203 -238.36791992 102.34033203 -234.91796875 100.6953125 C-234.29426895 100.39576157 -233.67056915 100.09621063 -233.02796936 99.7875824 C-226.46777674 96.67228883 -219.79783699 93.80360614 -213.10839844 90.97921753 C-210.05426731 89.68953235 -207.0045256 88.38959826 -203.95437622 87.0905304 C-202.35194162 86.40815106 -200.74929934 85.72625922 -199.14645386 85.04484558 C-191.66079694 81.8613999 -184.19305835 78.63728112 -176.72912598 75.40328979 C-172.87857591 73.73500276 -169.02712357 72.06880079 -165.17578125 70.40234375 C-164.37091278 70.05404007 -163.56604431 69.70573639 -162.73678589 69.34687805 C-152.05622615 64.72538046 -141.37250899 60.11120049 -130.6875 55.5 C-129.62197906 55.04013702 -128.55645813 54.58027405 -127.45864868 54.10647583 C-114.94817699 48.70826375 -102.43209793 43.32338157 -89.90625 37.9609375 C-88.73219101 37.45830383 -87.55813202 36.95567017 -86.34849548 36.43780518 C-81.62302898 34.41503886 -76.8974552 32.39252456 -72.17141724 30.37109375 C-59.53381159 24.96498055 -46.90631572 19.53756972 -34.30859375 14.0390625 C-32.68442787 13.33050613 -32.68442787 13.33050613 -31.02745056 12.6076355 C-25.90996082 10.37404186 -20.79463105 8.13567854 -15.68237305 5.89013672 C-13.88463945 5.10375751 -12.08687138 4.31745708 -10.2890625 3.53125 C-9.06218971 2.98943588 -9.06218971 2.98943588 -7.81053162 2.43667603 C-2.22647923 0 -2.22647923 0 0 0 Z " fill="#1B7981" transform="translate(974,529)"/>
<path d="M0 0 C0.95494354 0.00115814 1.90988708 0.00231628 2.89376831 0.00350952 C20.75809227 0.04605911 38.33491749 1.12203026 56.0625 3.3125 C57.03944824 3.42996582 58.01639648 3.54743164 59.02294922 3.66845703 C99.33086765 8.69141004 133.215842 30.27624615 162.7421875 57.2109375 C164.75647731 59.03532794 166.80398614 60.80343802 168.875 62.5625 C172.63311495 65.84509837 176.20070493 69.30749026 179.75 72.8125 C180.29696533 73.34649414 180.84393066 73.88048828 181.4074707 74.43066406 C185.10993942 78.12468094 188.11923663 81.98770484 191.0625 86.3125 C187.05210711 84.81140322 183.39374265 82.90097148 179.625 80.875 C163.74292073 72.74826027 145.94688399 72.10739294 129.05664062 77.54980469 C125.65450079 78.85101488 122.54831782 80.66330505 119.375 82.4375 C112.23464123 86.42079502 105.63558508 87.35507927 97.50708008 87.56884766 C88.43676585 87.92358685 81.52478847 91.99708172 75.0625 98.3125 C69.15920054 105.96492523 67.03739284 113.28894249 66.8125 122.875 C66.59729359 129.82763426 64.83914669 135.00379196 61.86352539 141.23828125 C51.92499178 162.12828993 51.74058182 183.58755289 52.0625 206.3125 C51.33933594 205.58675781 50.61617187 204.86101562 49.87109375 204.11328125 C31.61938695 185.91234415 12.69859703 176.2243956 -13.31640625 176.13671875 C-15.28045793 176.11946168 -17.24450974 176.10218105 -19.20854855 176.08351612 C-24.02629431 176.03813746 -28.84391683 176.00015431 -33.66186523 175.98657227 C-36.37446801 175.97842833 -39.08661005 175.95984237 -41.79905701 175.92964172 C-44.3465091 175.90154964 -46.89418376 175.88857343 -49.44178772 175.89250183 C-60.21148152 175.73915542 -60.21148152 175.73915542 -64.9375 171.3125 C-67.90801564 166.85672653 -67.56487491 162.53807394 -66.9375 157.3125 C-64.84523625 153.65103843 -62.85067371 151.77342284 -58.9375 150.3125 C-56.03823448 150.12297787 -53.23486896 150.04248121 -50.33618164 150.05712891 C-49.03526581 150.05169823 -49.03526581 150.05169823 -47.70806885 150.04615784 C-45.82508966 150.03926763 -43.94209051 150.0367577 -42.0590992 150.03810501 C-39.06843284 150.03907195 -36.07812429 150.02610465 -33.08750916 150.00912476 C-24.58432859 149.9629267 -16.08118258 149.93828358 -7.57788086 149.93164062 C-2.37299306 149.92659448 2.83152518 149.90218045 8.03628731 149.86631393 C10.00998262 149.85657997 11.98372923 149.85414861 13.95744133 149.85948563 C33.87648774 149.96512918 33.87648774 149.96512918 51.34765625 141.1484375 C58.20284242 133.80917213 61.61056779 125.21116435 61.3671875 115.24609375 C60.38599658 105.79898627 56.18365083 98.51604337 49.0625 92.3125 C46.48977222 90.64472803 43.9178695 89.41247268 41.0625 88.3125 C40.39679489 87.97228821 39.73108978 87.63207642 39.04521179 87.28155518 C34.80582867 85.90421923 30.8128095 86.03401521 26.38208008 86.05371094 C24.92741333 86.04845398 24.92741333 86.04845398 23.44335938 86.04309082 C20.23951033 86.03429404 17.03588253 86.04011781 13.83203125 86.046875 C11.59868833 86.04552721 9.3653457 86.04358573 7.13200378 86.04107666 C2.44889536 86.03812771 -2.23413677 86.0424137 -6.91723633 86.05175781 C-12.90120406 86.06311913 -18.88499171 86.05661245 -24.86895275 86.04461288 C-29.48366127 86.03735992 -34.09832765 86.03969854 -38.71303749 86.04486847 C-40.91810439 86.04619719 -43.12317519 86.04458468 -45.32823753 86.03990936 C-48.42229596 86.03479128 -51.51606999 86.04262964 -54.61010742 86.05371094 C-55.96103233 86.04763824 -55.96103233 86.04763824 -57.33924866 86.04144287 C-78.57296661 86.18128131 -97.22145957 95.09350349 -112.3359375 109.6171875 C-120.98553488 118.62103461 -126.72891316 129.14254379 -130.24609375 141.08203125 C-130.9375 143.3125 -130.9375 143.3125 -131.9375 144.3125 C-136.00326661 165.38326124 -133.77903504 185.92809572 -121.8125 204.0625 C-111.19954741 218.37846943 -98.0419472 229.6110176 -80.9375 235.3125 C-79.74833984 235.73982422 -79.74833984 235.73982422 -78.53515625 236.17578125 C-72.40442427 238.32816802 -66.64706588 239.43119632 -60.11914062 239.4543457 C-58.9977771 239.46138016 -57.87641357 239.46841461 -56.72106934 239.47566223 C-55.52405396 239.47982651 -54.32703857 239.48399078 -53.09375 239.48828125 C-50.5429604 239.51146893 -47.99217911 239.53558583 -45.44140625 239.56054688 C-41.43206871 239.5957165 -37.42304284 239.62673513 -33.41357422 239.63842773 C-29.53575748 239.65388952 -25.6588316 239.69407496 -21.78125 239.73828125 C-20.58423462 239.73637283 -19.38721924 239.73446442 -18.15393066 239.73249817 C-11.80525335 239.82586275 -7.72872571 239.97083011 -2.9375 244.3125 C-0.16277502 247.44525401 0.28483641 249.74980742 0.0625 253.8125 C-0.64115345 258.35976585 -2.16400926 260.54527346 -5.9375 263.3125 C-10.6971296 265.30023144 -15.09699785 265.60627514 -20.18676758 265.59960938 C-20.99248703 265.60644241 -21.79820648 265.61327545 -22.62834167 265.62031555 C-24.36994981 265.63385566 -26.11159716 265.64293961 -27.8532505 265.64802551 C-30.6161474 265.65635283 -33.3787198 265.67689451 -36.14152527 265.70056152 C-42.01096832 265.74868248 -47.88044403 265.78166506 -53.75 265.8125 C-60.5447524 265.84826552 -67.33934601 265.8903539 -74.13394737 265.94844055 C-76.84418799 265.96837963 -79.55430432 265.97680297 -82.26460266 265.98474121 C-83.94308918 265.99772616 -85.62157166 266.01124829 -87.30004883 266.02539062 C-88.41556625 266.02391777 -88.41556625 266.02391777 -89.55361938 266.02241516 C-100.20570214 266.14645128 -108.12230242 268.85793483 -115.953125 276.203125 C-123.20814543 283.9458779 -124.65863183 290.91979222 -124.40625 301.48828125 C-123.26128503 310.82928715 -118.55289234 317.53227351 -111.57421875 323.59375 C-104.50033036 328.20487725 -98.37178062 329.90572953 -89.97070312 329.79833984 C-89.01824203 329.80213654 -88.06578094 329.80593323 -87.0844574 329.80984497 C-83.96221085 329.81720375 -80.84091267 329.79593321 -77.71875 329.7734375 C-75.53357044 329.77105014 -73.34838881 329.77014837 -71.16320801 329.7706604 C-66.59386252 329.76754035 -62.02483254 329.75103635 -57.45556641 329.72412109 C-51.61507945 329.69014289 -45.77493855 329.68249312 -39.93436432 329.68401146 C-35.42519869 329.68346613 -30.91610783 329.67247276 -26.40696716 329.65800858 C-24.25411036 329.65166993 -22.10124514 329.64770859 -19.94837952 329.64622116 C-16.93354029 329.64185685 -13.91905848 329.62428893 -10.90429688 329.60302734 C-10.02507065 329.60393372 -9.14584442 329.60484009 -8.23997498 329.60577393 C12.0198214 329.39815461 31.50739287 319.57489618 45.49365234 305.35302734 C54.87105187 295.43848404 61.95983242 282.65397059 65.0625 269.3125 C65.3925 269.3125 65.7225 269.3125 66.0625 269.3125 C66.0718457 270.15844727 66.08119141 271.00439453 66.09082031 271.87597656 C66.13535606 275.07469088 66.19719699 278.27251712 66.27001953 281.47070312 C66.2979011 282.84362994 66.31927527 284.21670749 66.33349609 285.58984375 C66.4811396 299.05493113 68.2031132 309.43649388 77.83203125 319.25390625 C87.83764302 328.48850766 97.7473352 328.74697393 110.67016602 328.66894531 C112.3581452 328.66973708 114.0461242 328.67183709 115.73410034 328.67514038 C120.3074266 328.68026225 124.88052667 328.6667553 129.45381665 328.64961338 C134.26501719 328.63450646 139.07621563 328.63574941 143.88743591 328.63494873 C151.98188086 328.63125779 160.07624096 328.61631265 168.1706543 328.59375 C178.49260578 328.56503294 188.81448846 328.55453825 199.13647556 328.5500679 C208.07473465 328.54605166 217.01297936 328.53354547 225.9512279 328.51972103 C228.78946636 328.51566351 231.62770434 328.51271676 234.46594429 328.50992584 C239.81529135 328.50381618 245.16459632 328.49179953 250.51391602 328.47363281 C251.76411189 328.46947601 251.76411189 328.46947601 253.03956425 328.46523523 C263.81439634 328.4220411 274.5635436 328.2413426 285.32138157 327.56999588 C290.06626344 327.2909928 294.34919128 327.48075627 299.0625 328.3125 C310.76934503 329.31308505 321.34066413 328.83796395 331.24609375 321.75 C335.42869545 319.61519081 339.69342277 319.26348356 344.3125 318.625 C354.71046221 317.04580949 364.8614615 314.83213026 375.0625 312.3125 C376.08083923 312.06132919 376.08083923 312.06132919 377.11975098 311.80508423 C383.22542425 310.2947325 389.32721699 308.77157822 395.41015625 307.171875 C396.1261499 306.98625 396.84214355 306.800625 397.57983398 306.609375 C399.56756776 306.09361875 401.5533824 305.57048233 403.5390625 305.046875 C406.86488606 304.35368783 409.68110268 304.03475241 413.0625 304.3125 C414.71484375 306.03515625 414.71484375 306.03515625 416 308.375 C421.65967159 317.65744337 428.14003407 321.94607425 438.0625 326.3125 C438.80242188 326.68890625 439.54234375 327.0653125 440.3046875 327.453125 C450.81227956 330.72744547 464.4455443 329.40844474 474.3359375 324.859375 C485.56538707 318.48851249 493.97669515 309.68964511 498.0625 297.3125 C499.34796594 292.03142968 500.23394301 286.68127986 501.0625 281.3125 C515.71564656 278.01391921 530.37972938 274.95225361 545.1875 272.4375 C546.42387207 272.22262939 547.66024414 272.00775879 548.93408203 271.78637695 C555.71053505 270.66560958 562.19344276 270.0105851 569.0625 270.3125 C569.37086881 283.29718254 568.42198056 295.96791821 567.0625 308.875 C566.86901211 310.77270714 566.67629952 312.67049349 566.484375 314.56835938 C566.01931384 319.15069836 565.54389878 323.73184978 565.0625 328.3125 C564.19971436 328.32708252 563.33692871 328.34166504 562.44799805 328.35668945 C559.24400353 328.41777754 556.04065375 328.49193549 552.8371582 328.57495117 C551.45120623 328.60818549 550.06511939 328.63622226 548.67895508 328.65893555 C546.68543157 328.69250617 544.69228259 328.74638 542.69921875 328.80078125 C541.49998779 328.82696533 540.30075684 328.85314941 539.06518555 328.88012695 C536.1403991 329.10239764 536.1403991 329.10239764 534.2199707 330.42431641 C532.51490873 333.20578642 532.32062821 335.80901728 531.90625 339.03515625 C528.42145675 362.30263884 528.42145675 362.30263884 522.1875 367.1640625 C518.27159093 369.41850851 514.0901847 370.89573519 509.81152344 372.31494141 C504.8614578 374.11120856 500.31598566 376.69701012 495.6875 379.1875 C493.73070078 380.20747651 491.77366952 381.22700799 489.81640625 382.24609375 C483.47457448 385.59503156 477.26020425 389.14889333 471.05175781 392.73730469 C455.74365843 401.56602842 440.1115901 409.83113035 424.4453125 418.00390625 C421.71028888 419.43436042 418.99777704 420.89452759 416.3046875 422.40234375 C394.65911747 434.41577585 371.2512178 444.02845998 347.94775391 452.28417969 C344.97031433 453.34535548 342.00695916 454.44093614 339.04296875 455.5390625 C256.30980607 485.72531134 166.33907333 489.06313319 69.0625 488.3125 C68.13026611 488.30283203 67.19803223 488.29316406 66.23754883 488.28320312 C45.81725478 488.05266071 25.44959078 487.02806461 5.0625 485.875 C3.421604 485.78283707 3.421604 485.78283707 1.74755859 485.68881226 C-11.72938894 484.9217478 -25.15697244 483.92066726 -38.58624268 482.55130005 C-41.50587571 482.25477423 -44.42672557 481.97176425 -47.3477478 481.6893158 C-50.52399585 481.38123769 -53.69943763 481.06505579 -56.875 480.75 C-58.80375977 480.56147461 -58.80375977 480.56147461 -60.77148438 480.36914062 C-62.63063477 480.18448242 -62.63063477 480.18448242 -64.52734375 479.99609375 C-65.61909912 479.88837646 -66.71085449 479.78065918 -67.83569336 479.66967773 C-70.89251596 479.31767998 -73.90747724 478.84553584 -76.9375 478.3125 C-77.2675 478.9725 -77.5975 479.6325 -77.9375 480.3125 C-88.20429895 464.61746119 -97.97295686 448.79615387 -106.9375 432.3125 C-107.43701172 431.40387207 -107.93652344 430.49524414 -108.45117188 429.55908203 C-136.76430251 377.85724367 -154.32439171 320.46791761 -162.75 262.25 C-162.84945923 261.57093597 -162.94891846 260.89187195 -163.0513916 260.19223022 C-166.26707345 237.92692236 -167.27214082 215.73177539 -167.19824219 193.25683594 C-167.18680382 189.75220101 -167.19367641 186.24786813 -167.20509624 182.74324322 C-167.23942658 170.43161292 -167.26608692 158.11754561 -166.12890625 145.84765625 C-166.06241882 145.08519592 -165.9959314 144.3227356 -165.9274292 143.53717041 C-165.17959602 136.76097617 -162.77692885 130.75553523 -159.44921875 124.828125 C-159.04880371 124.10689453 -158.64838867 123.38566406 -158.23583984 122.64257812 C-157.8073877 121.87365234 -157.37893555 121.10472656 -156.9375 120.3125 C-155.98499936 118.53682171 -155.03321374 116.76075974 -154.08203125 114.984375 C-148.4062022 104.54556217 -142.25189149 94.46559673 -135.6875 84.5625 C-134.73230469 83.11798462 -134.73230469 83.11798462 -133.7578125 81.64428711 C-129.19134963 74.87034817 -124.20139618 68.55578222 -118.9375 62.3125 C-118.36837891 61.63155273 -117.79925781 60.95060547 -117.21289062 60.24902344 C-106.11728014 47.02616533 -106.11728014 47.02616533 -99.9375 41.3125 C-99.12732422 40.54679687 -99.12732422 40.54679687 -98.30078125 39.765625 C-69.1898797 13.24376242 -39.13909439 -0.1474958 0 0 Z " fill="#59B5C0" transform="translate(166.9375,322.6875)"/>
<path d="M0 0 C1.16554064 -0.00573832 1.16554064 -0.00573832 2.35462755 -0.01159257 C4.96642126 -0.02193715 7.57799572 -0.01792772 10.18980408 -0.01396179 C12.058901 -0.01830739 13.92799615 -0.02349002 15.79708862 -0.02944946 C20.8795478 -0.0428652 25.96193274 -0.04341541 31.04440618 -0.04088616 C35.28185899 -0.03981848 39.51929665 -0.04469447 43.75674623 -0.04949158 C53.74876657 -0.06059508 63.74074931 -0.06101904 73.73277283 -0.05497742 C84.05578935 -0.04893189 94.37866978 -0.06126141 104.70166308 -0.08254749 C113.55349508 -0.10013177 122.40528363 -0.10616999 131.25713247 -0.10290974 C136.5489827 -0.10109211 141.84073578 -0.10378093 147.13257027 -0.11762428 C152.10576922 -0.13014698 157.07875499 -0.12831159 162.05195045 -0.11521339 C163.88136617 -0.1128361 165.71079664 -0.11562318 167.54019547 -0.12383652 C170.02908327 -0.13420865 172.51724292 -0.12628124 175.00610352 -0.11352539 C175.73751165 -0.12089968 176.46891978 -0.12827396 177.2224918 -0.13587171 C179.2345438 -0.1140337 179.2345438 -0.1140337 182.43955994 0.26069641 C185.25824718 4.48872727 184.38136284 7.42256378 183.43955994 12.26069641 C181.25774175 20.44251459 181.25774175 20.44251459 178.43955994 23.26069641 C173.77212391 23.54051872 169.11292048 23.3456666 164.43955994 23.26069641 C164.61268456 24.5489608 164.61268456 24.5489608 164.78930664 25.86325073 C166.31888472 37.62949388 167.47199252 49.42304341 168.59647942 61.2340374 C169.06240051 66.11614371 169.53643497 70.99745253 170.00991154 75.87883091 C170.88782131 84.93069171 171.76243724 93.98284103 172.62339783 103.03633118 C173.22611997 109.3709938 173.83909307 115.70459248 174.45880318 122.03761482 C174.69181257 124.4385156 174.92104534 126.83978615 175.14634514 129.24142265 C175.46151412 132.59644285 175.78976437 135.94994993 176.12095642 139.30342102 C176.20988663 140.2838588 176.29881683 141.26429657 176.39044189 142.27444458 C177.4699972 152.90110341 180.87439136 164.49510032 187.76963806 172.90376282 C192.10290192 176.42485646 198.17784489 175.49728872 203.42784119 175.17866516 C206.47170945 175.07313148 207.20133481 175.10445785 209.84580994 176.83882141 C215.46736702 185.38138364 217.60243109 198.26793987 215.77549744 208.28804016 C215.4679531 209.719229 215.14759315 211.1477232 214.81455994 212.57319641 C214.66245056 213.24334778 214.51034119 213.91349915 214.35362244 214.60395813 C213.1441997 219.19541243 211.65714347 223.74800979 207.43955994 226.26069641 C203.1445465 226.98785608 198.96696207 226.82533919 194.62705994 226.63569641 C193.45723572 226.6086261 192.2874115 226.58155579 191.08213806 226.55366516 C188.19939859 226.48306746 185.32042422 226.38450215 182.43955994 226.26069641 C182.51102234 226.91151184 182.58248474 227.56232727 182.65611267 228.23286438 C183.1565935 232.96841838 183.56319067 237.61749937 183.50205994 242.38569641 C183.4930365 243.31639954 183.48401306 244.24710266 183.47471619 245.20600891 C183.45731384 246.22307922 183.45731384 246.22307922 183.43955994 247.26069641 C177.61796476 250.26019563 171.73269169 252.87176439 165.66221619 255.32319641 C164.71967987 255.70686371 163.77714355 256.09053101 162.80604553 256.48582458 C159.70589299 257.74703024 156.60397126 259.00382344 153.50205994 260.26069641 C151.30896988 261.15212233 149.1160198 262.04389269 146.92320251 262.93598938 C142.36507279 264.79003668 137.80634414 266.64259982 133.24717712 268.49409485 C123.7180223 272.36513415 114.19580332 276.25314524 104.67375183 280.14161682 C101.61062986 281.39240543 98.54733521 282.64277023 95.48399353 283.89302063 C82.93635792 289.01438965 70.39087018 294.14098925 57.84751892 299.27284241 C55.1537364 300.37478391 52.45975362 301.47623459 49.76573181 302.57759094 C41.26127524 306.05512687 32.75932331 309.53855132 24.26345825 313.03703308 C20.19823407 314.71063517 16.13188931 316.38150449 12.06544495 318.05213928 C10.12687174 318.84947403 8.18885013 319.6481514 6.25141907 320.44825745 C3.5694119 321.55577468 0.88555776 322.65869929 -1.79872131 323.76069641 C-2.58521057 324.08689972 -3.37169983 324.41310303 -4.18202209 324.74919128 C-8.59148179 326.5534484 -12.95359749 328.04165265 -17.56044006 329.26069641 C-17.72866697 321.44026134 -17.06621306 313.78786375 -16.31825256 306.00679016 C-16.18812353 304.61986972 -16.05840205 303.23291098 -15.92906189 301.84591675 C-15.58817395 298.20030334 -15.24254409 294.55515622 -14.89564514 290.91011047 C-14.34810481 285.14853627 -13.80763989 279.38629203 -13.26709747 273.62405777 C-13.13473881 272.21472467 -13.00207475 270.80542021 -12.86910248 269.39614487 C-11.89913006 259.11432872 -10.99316594 248.82878266 -10.20036316 238.53155518 C-10.12953522 237.63787735 -10.05870728 236.74419952 -9.98573303 235.82344055 C-9.92707062 235.05697708 -9.8684082 234.29051361 -9.80796814 233.50082397 C-9.53697772 231.04836238 -9.0759783 228.67257325 -8.56044006 226.26069641 C-9.3323468 226.27117004 -10.10425354 226.28164368 -10.89955139 226.29243469 C-14.39064794 226.33396095 -17.88169256 226.36001198 -21.37294006 226.38569641 C-22.58788147 226.40245422 -23.80282288 226.41921204 -25.05458069 226.43647766 C-26.21795959 226.44292297 -27.3813385 226.44936829 -28.57997131 226.45600891 C-30.19029236 226.47171936 -30.19029236 226.47171936 -31.83314514 226.48774719 C-34.56044006 226.26069641 -34.56044006 226.26069641 -37.56044006 224.26069641 C-39.41067632 220.50697969 -40.28929862 216.58406659 -41.18544006 212.51069641 C-41.576026 210.78593079 -41.576026 210.78593079 -41.97450256 209.02632141 C-43.2032375 201.12965158 -42.48111083 194.52582793 -40.24794006 186.88569641 C-40.03460022 186.09292297 -39.82126038 185.30014954 -39.60145569 184.48335266 C-37.58478007 177.36779868 -37.58478007 177.36779868 -34.56044006 175.26069641 C-31.55775452 174.92012024 -31.55775452 174.92012024 -27.92372131 174.96772766 C-26.62499084 174.97739563 -25.32626038 174.9870636 -23.98817444 174.99702454 C-22.61642368 175.02209057 -21.24467889 175.0474854 -19.87294006 175.07319641 C-18.48949083 175.08824622 -17.10602605 175.10193411 -15.72254944 175.11421204 C-12.33478799 175.14962418 -8.94780867 175.19901587 -5.56044006 175.26069641 C-5.58250519 174.01865952 -5.60457031 172.77662262 -5.62730408 171.49694824 C-5.6236101 165.78282661 -5.07257822 160.16076498 -4.49061584 154.48066711 C-4.31987045 152.76143036 -4.31987045 152.76143036 -4.14567566 151.00746155 C-3.76984282 147.23337351 -3.38778795 143.45994244 -3.00575256 139.68647766 C-2.7410859 137.03923519 -2.47678883 134.39195847 -2.21299744 131.74462891 C-1.58844821 125.48445192 -0.95955625 119.22471967 -0.32893264 112.96515197 C0.58881782 103.85393459 1.5006691 94.7421266 2.41179085 85.63024426 C2.5133257 84.61485395 2.5133257 84.61485395 2.61691177 83.5789507 C2.75228256 82.22516764 2.88764122 80.87138337 3.02298748 79.51759785 C3.47463839 75.00179311 3.92861969 70.48622649 4.38337708 65.97073364 C5.81349909 51.74060428 7.17694128 37.50669501 8.43955994 23.26069641 C5.28330994 23.35444641 5.28330994 23.35444641 2.12705994 23.44819641 C-3.99485169 23.63003537 -3.99485169 23.63003537 -6.37294006 22.07710266 C-9.96064828 16.58932528 -11.38509636 8.7205041 -10.56044006 2.26069641 C-6.91103685 -0.17223906 -4.21776665 -0.02186067 0 0 Z M76.43955994 35.26069641 C77.22782166 36.21573059 78.01608337 37.17076477 78.82823181 38.15473938 C79.27162903 38.69194611 79.71502625 39.22915283 80.17185974 39.78263855 C81.64003392 41.49443633 83.20644556 42.94406036 84.93955994 44.38569641 C96.46300834 54.23498345 107.7582642 64.62149276 117.61143494 76.15522766 C119.74976864 78.61796669 121.97040593 80.99556984 124.18955994 83.38569641 C129.00112659 88.65724591 133.39720292 94.18532533 137.76377869 99.82710266 C140.22200839 103.00035695 142.75601734 106.10503298 145.31455994 109.19819641 C147.80446191 112.2146368 150.1965439 115.24388778 152.43955994 118.44819641 C153.09955994 119.37632141 153.75955994 120.30444641 154.43955994 121.26069641 C154.76955994 121.26069641 155.09955994 121.26069641 155.43955994 121.26069641 C154.20935509 105.14471086 152.80223967 89.05363432 151.2073822 72.96968079 C150.87102465 69.57478153 150.53887084 66.17948791 150.20713806 62.78413391 C149.99188549 60.59661006 149.77639981 58.40910914 149.56065369 56.22163391 C149.41375343 54.72012283 149.41375343 54.72012283 149.2638855 53.1882782 C149.08109675 51.35236426 148.89153996 49.51710538 148.69367981 47.68275452 C148.53477141 46.16817254 148.3962236 44.65115635 148.28822327 43.13209534 C148.03411012 40.31740958 147.8213515 38.65107431 145.80984497 36.59432983 C142.66865744 34.82695054 140.43278978 34.89983233 136.83506775 34.92012024 C135.85395775 34.91946312 135.85395775 34.91946312 134.85302734 34.91879272 C132.69927219 34.92087644 130.54630345 34.94418626 128.39268494 34.96772766 C126.89624965 34.97332514 125.39980885 34.97759452 123.90336609 34.98059082 C119.97083778 34.99202777 116.03864355 35.02148473 112.10624695 35.05470276 C108.09109516 35.08542863 104.07588923 35.09910152 100.06065369 35.11421204 C92.18680271 35.14635581 84.31322292 35.19753792 76.43955994 35.26069641 Z " fill="#1C7981" transform="translate(771.5604400634766,88.73930358886719)"/>
<path d="M0 0 C1.20011719 0.3403125 2.40023437 0.680625 3.63671875 1.03125 C18.65952653 5.60139502 30.94397998 13.08240811 43 23 C44.01320313 23.78310547 44.01320313 23.78310547 45.046875 24.58203125 C50.53950864 28.95346216 54.7314929 34.46844089 59 40 C59.60972656 40.78246094 60.21945312 41.56492187 60.84765625 42.37109375 C68.72949365 53.01785817 74.38031593 65.29259848 78 78 C78.37125 79.2375 78.7425 80.475 79.125 81.75 C82.17504547 94.96696872 82.32485558 108.43375562 82.3359375 121.91796875 C82.3423863 123.79209997 82.34911609 125.66623023 82.35610962 127.5403595 C82.36798409 131.43895807 82.37180015 135.33746865 82.37060547 139.23608398 C82.37040159 144.1983783 82.39781922 149.16010442 82.43214989 154.12226391 C82.45451322 157.98218826 82.45844031 161.84197714 82.45738602 165.70195961 C82.45972333 167.53056121 82.46843947 169.35916763 82.48405075 171.18770409 C82.5885771 184.67990547 82.18213505 197.3035729 72.9140625 208.0703125 C69.84658953 211.16282607 66.69572548 213.69717106 63 216 C62.071875 216.62068359 62.071875 216.62068359 61.125 217.25390625 C52.94299577 221.84030315 41.92915165 221.1522547 32.96484375 219.41015625 C23.32596587 216.09535989 15.44989669 208.01440713 11 199 C7.92976197 191.98439027 7.59670599 185.54948791 7.70703125 177.96484375 C7.71005249 176.97133911 7.71307373 175.97783447 7.71618652 174.95422363 C7.73175267 171.28187508 7.77363554 167.60967589 7.8125 163.9375 C7.874375 155.708125 7.93625 147.47875 8 139 C-16.42 139 -40.84 139 -66 139 C-65.84235192 155.24392677 -65.84235192 155.24392677 -65.63964844 171.48730469 C-65.62794786 173.54881962 -65.6177593 175.61034391 -65.609375 177.671875 C-65.58891113 178.71166504 -65.56844727 179.75145508 -65.54736328 180.82275391 C-65.54242509 191.38553464 -68.10409636 200.86635159 -75.01171875 209.03125 C-83.58428209 217.51960348 -92.81959945 220.64741464 -104.5793457 220.61889648 C-114.92262978 220.27760294 -123.26028349 216.25044544 -130.5625 208.8125 C-139.79115768 196.57030231 -139.71935083 184.69126173 -139.59375 169.98828125 C-139.59203501 167.84897428 -139.59210852 165.70966521 -139.59387207 163.57035828 C-139.59222498 159.09951496 -139.57364671 154.62917672 -139.54199219 150.15844727 C-139.50243832 144.47455663 -139.49793732 138.79132954 -139.50545502 133.10732746 C-139.50855049 128.69132082 -139.49631143 124.27545867 -139.47932434 119.85948753 C-139.47237197 117.76627702 -139.46916019 115.67305014 -139.47001648 113.57982826 C-139.45158958 83.92980193 -132.79729252 57.77113475 -113 35 C-112.52304687 34.3915625 -112.04609375 33.783125 -111.5546875 33.15625 C-107.12191324 27.5836195 -101.61344008 23.33169172 -96 19 C-95.21753906 18.39027344 -94.43507813 17.78054688 -93.62890625 17.15234375 C-67.84665347 -1.93434928 -30.92942943 -9.64842578 0 0 Z " fill="#1C7981" transform="translate(576,422)"/>
<path d="M0 0 C1.17054428 -0.00571014 2.34108856 -0.01142029 3.54710388 -0.01730347 C4.83285309 -0.01842133 6.11860229 -0.01953918 7.4433136 -0.02069092 C8.81007013 -0.02531995 10.17682537 -0.03034473 11.5435791 -0.03573608 C15.25869567 -0.04885665 18.97379416 -0.05530474 22.68893027 -0.05974674 C25.0115335 -0.06267892 27.33413181 -0.06678408 29.65673256 -0.07125092 C36.92787868 -0.08492693 44.19901354 -0.09459223 51.47017163 -0.09845281 C59.85521774 -0.10292949 68.24010052 -0.12045875 76.62509698 -0.1494534 C83.11100715 -0.17109996 89.59687148 -0.18115872 96.08281738 -0.18249393 C99.95412686 -0.18354012 103.82528283 -0.18940791 107.69655418 -0.20731354 C111.34176562 -0.22384507 114.98670899 -0.22592529 118.63194466 -0.21717453 C120.59848613 -0.21604227 122.56501891 -0.22972162 124.5315094 -0.243927 C133.14103485 -0.20345257 140.28409578 0.53226543 146.99531555 6.54669189 C152.27518977 12.63197066 154.74472894 19.41651231 154.6632843 27.37481689 C153.98582122 33.94528079 151.12806075 40.52245177 146.37812805 45.14044189 C140.96110274 49.06890446 136.59958087 51.26863609 129.8349762 51.26069641 C128.92916306 51.26207108 128.02334991 51.26344574 127.09008789 51.26486206 C125.61086601 51.25946915 125.61086601 51.25946915 124.10176086 51.25396729 C123.05754471 51.25411331 122.01332855 51.25425934 120.93746948 51.25440979 C117.48537622 51.25371303 114.03333689 51.24593163 110.58125305 51.23809814 C108.18800384 51.23623313 105.79475425 51.23480962 103.40150452 51.23381042 C97.10177049 51.22999185 90.80205951 51.22016716 84.50233459 51.20910645 C76.9440763 51.19707991 69.38581029 51.19248694 61.82754517 51.18665314 C50.3443901 51.17695509 38.8612856 51.15779388 27.37812805 51.14044189 C27.37812805 73.91044189 27.37812805 96.68044189 27.37812805 120.14044189 C34.22691711 120.09403564 41.07570618 120.04762939 48.1320343 119.99981689 C52.47514845 119.97937476 56.81820315 119.9601187 61.16133118 119.94512939 C68.05248865 119.92123334 74.94343319 119.89298721 81.83442688 119.83868408 C87.39114653 119.79517029 92.94763779 119.77129281 98.50451469 119.76093292 C100.62278271 119.75355155 102.74103847 119.73913741 104.85920906 119.71752167 C107.83006264 119.68841462 110.79997671 119.68448901 113.77095032 119.68634033 C115.07970627 119.66476868 115.07970627 119.66476868 116.41490173 119.64276123 C122.22454839 119.68184366 125.61959992 120.75141394 130.37812805 124.14044189 C133.08540376 128.15768973 134.1470452 131.33470974 133.37812805 136.14044189 C131.30178703 140.38858789 129.34191927 143.49791442 125.37812805 146.14044189 C123.47848225 146.38653755 123.47848225 146.38653755 121.29690552 146.38095093 C120.46819443 146.38370026 119.63948334 146.38644958 118.78565979 146.38928223 C117.88007324 146.38209167 116.97448669 146.37490112 116.04145813 146.36749268 C115.08517014 146.36778473 114.12888214 146.36807678 113.14361572 146.36837769 C109.97820507 146.36698274 106.8130289 146.35141369 103.6476593 146.33575439 C101.45476409 146.33202485 99.2618672 146.3291776 97.06896973 146.32717896 C91.29361887 146.31953788 85.51836841 146.29988527 79.74305725 146.277771 C73.85124571 146.25732281 67.95941797 146.24817943 62.06758118 146.23809814 C50.5043789 146.21663986 38.94127753 146.1814538 27.37812805 146.14044189 C27.37812805 154.39044189 27.37812805 162.64044189 27.37812805 171.14044189 C30.59740051 171.11949463 33.81667297 171.09854736 37.13349915 171.07696533 C47.79039909 171.01057653 58.44730835 170.96645897 69.10436058 170.93319321 C75.56340381 170.91235159 82.02223448 170.88409597 88.4811554 170.83868408 C94.71869104 170.79510502 100.9560227 170.77127903 107.19369888 170.76093292 C109.5690545 170.75356326 111.94439943 170.73917214 114.31966782 170.71752167 C117.65629125 170.68832821 120.9920803 170.68449266 124.32881165 170.68634033 C125.30273865 170.67195923 126.27666565 170.65757812 127.28010559 170.64276123 C135.64304794 170.69261075 142.92677409 172.660733 149.25312805 178.32794189 C155.12925449 184.88475438 157.08806435 191.45044423 156.7648468 200.21075439 C155.82454086 207.33428429 152.46629675 213.1679134 147.37812805 218.14044189 C140.60703719 222.38814486 133.84462476 224.39202599 125.8429718 224.38336182 C124.74130912 224.3861626 124.74130912 224.3861626 123.61739063 224.38901997 C121.18336411 224.39264756 118.74962903 224.38190755 116.31562805 224.37091064 C114.58651749 224.37018033 112.85740643 224.37023786 111.1282959 224.37103271 C106.50090266 224.37019295 101.87364404 224.35610035 97.2462883 224.33828354 C94.38200205 224.32795586 91.51772528 224.32077552 88.65342712 224.31466675 C75.56145378 224.28618556 62.46985711 224.224367 49.37812805 224.14044189 C48.58241142 224.13552734 47.78669479 224.13061279 46.96686554 224.12554932 C38.30510324 224.07161737 29.64398429 223.99739264 20.98286438 223.87496948 C18.71924924 223.84381789 16.45556922 223.81704735 14.19184875 223.79483032 C11.10115137 223.7620781 8.01140667 223.7103129 4.9210968 223.65216064 C4.04269638 223.64575562 3.16429596 223.63935059 2.25927734 223.63275146 C-6.04577853 223.4306046 -11.68145118 220.72886942 -17.82499695 215.10919189 C-23.50943492 208.88102508 -24.74251744 202.03792371 -24.76904297 193.848526 C-24.77271966 193.11233542 -24.77639634 192.37614483 -24.78018445 191.61764544 C-24.79120116 189.14973262 -24.79506171 186.68186193 -24.7988739 184.21392822 C-24.80514008 182.44471097 -24.81178702 180.67549502 -24.81878662 178.90628052 C-24.83981139 173.09502069 -24.85018768 167.28376064 -24.8601532 161.47247314 C-24.86420138 159.47046075 -24.86831832 157.4684485 -24.87250328 155.46643639 C-24.89155164 146.060084 -24.9057833 136.65373945 -24.91411525 127.24737149 C-24.92388605 116.39632227 -24.95020301 105.54547712 -24.99061614 94.69449979 C-25.02079526 86.30283875 -25.03558584 77.91123614 -25.03889626 69.51952189 C-25.04124473 64.50966025 -25.05017881 59.50001672 -25.07535744 54.49021339 C-25.09867449 49.77466905 -25.10285677 45.05948587 -25.09259605 40.34389877 C-25.09210146 38.61738952 -25.09839918 36.89086227 -25.1121521 35.16440773 C-25.18945212 24.88168118 -24.49529578 17.22725077 -18.87187195 8.39044189 C-13.43974701 2.95831695 -7.69661419 0.02246238 0 0 Z " fill="#1C7981" transform="translate(267.6218719482422,418.85955810546875)"/>
<path d="M0 0 C0.95202301 -0.00817749 1.90404602 -0.01635498 2.88491821 -0.02478027 C6.02312609 -0.04951333 9.16128917 -0.06611724 12.29956055 -0.08056641 C13.91279237 -0.08855192 13.91279237 -0.08855192 15.55861473 -0.09669876 C21.2488674 -0.1233749 26.93909852 -0.14276941 32.62939453 -0.15722656 C37.32881092 -0.17057348 42.02779391 -0.19844865 46.72705078 -0.23925781 C52.41392879 -0.28863385 58.10041337 -0.31335311 63.78749657 -0.32045364 C65.94877612 -0.32715385 68.11004732 -0.34234367 70.27120399 -0.36634445 C73.30105693 -0.3980796 76.32939845 -0.39802024 79.359375 -0.390625 C80.68528404 -0.415233 80.68528404 -0.415233 82.03797913 -0.44033813 C89.10515399 -0.37007639 94.5996235 1.86942176 99.9318285 6.56485939 C104.17124857 11.2020366 106.03284648 16.51411327 106.8112793 22.63037109 C105.93028903 29.80414897 103.02278939 35.59483963 97.3737793 40.19287109 C90.48325982 44.86575212 84.54787703 45.33985285 76.48779297 45.3347168 C75.15998055 45.33992844 75.15998055 45.33992844 73.80534363 45.34524536 C71.88744417 45.3525831 69.96953633 45.35793901 68.05162621 45.36153603 C65.01191258 45.36872288 61.97235837 45.38440595 58.93269348 45.40287781 C50.29157691 45.45524419 41.65054922 45.50331528 33.00927734 45.51879883 C27.71894668 45.52889841 22.42902006 45.55827074 17.13884926 45.60011864 C15.12753675 45.61240265 13.11616712 45.61755466 11.10481834 45.61532021 C8.28542549 45.61295861 5.46718581 45.635198 2.64794922 45.6628418 C1.82429871 45.65624039 1.00064819 45.64963898 0.15203857 45.64283752 C-6.45462599 45.74872823 -11.95044333 47.50186159 -16.68481445 52.26318359 C-17.13985352 52.94123047 -17.59489258 53.61927734 -18.0637207 54.31787109 C-18.53680664 55.00107422 -19.00989258 55.68427734 -19.49731445 56.38818359 C-22.92340426 61.8651853 -22.50420971 69.23155062 -21.13012695 75.43115234 C-18.85365364 81.23165778 -14.30477474 85.37614485 -8.93588257 88.3614502 C-3.81855997 90.20355921 1.77106734 89.62108939 7.13549805 89.52099609 C8.49004803 89.51564678 9.84461248 89.51324329 11.19917297 89.51361084 C16.91097814 89.51101288 22.62182659 89.46583353 28.33300781 89.38183594 C49.96804081 89.08695899 69.10686415 90.69266243 86.3737793 105.19287109 C87.06213867 105.72267578 87.75049805 106.25248047 88.4597168 106.79833984 C96.5067954 113.28841665 101.87356781 121.62364888 106.2487793 130.88037109 C106.53503174 131.48558594 106.82128418 132.09080078 107.11621094 132.71435547 C112.94699545 145.6552971 113.71974477 162.64647389 109.5300293 176.24365234 C104.70862989 188.54147855 98.89392984 198.01071406 89.3737793 207.19287109 C88.40698242 208.20607422 88.40698242 208.20607422 87.4206543 209.23974609 C71.98009067 224.41177818 48.83992183 225.81880857 28.5300293 225.72412109 C26.46455707 225.72682291 24.39908609 225.73071103 22.33361816 225.73571777 C18.03730983 225.74156983 13.74133726 225.73318266 9.44506836 225.71435547 C3.95313386 225.69145281 -1.53802336 225.70478768 -7.02993011 225.72864532 C-11.28171621 225.7431217 -15.53331876 225.73849081 -19.78511047 225.72813416 C-21.8104105 225.72547794 -23.83572753 225.72869747 -25.86100769 225.73805237 C-28.68879269 225.7482613 -31.51532543 225.73266149 -34.34301758 225.71044922 C-35.16808807 225.71854614 -35.99315857 225.72664307 -36.8432312 225.73498535 C-43.57730296 225.637457 -48.77916697 223.68776313 -53.8684082 219.22802734 C-54.40723633 218.57705078 -54.94606445 217.92607422 -55.5012207 217.25537109 C-56.05551758 216.60697266 -56.60981445 215.95857422 -57.1809082 215.29052734 C-61.27140918 209.35377322 -61.5084409 203.19606232 -60.6262207 196.19287109 C-58.05523345 189.46196025 -53.00149627 185.24468391 -46.9733429 181.5802002 C-42.81043884 179.85474244 -39.46408936 179.77331408 -35.00976562 179.80810547 C-34.16503189 179.8027327 -33.32029816 179.79735992 -32.44996643 179.79182434 C-30.62322966 179.78207249 -28.7964467 179.77909433 -26.96968651 179.78218079 C-24.07228541 179.78667445 -21.17549007 179.77261364 -18.27815247 179.75378418 C-12.12335167 179.71705926 -5.9686149 179.70330739 0.1862793 179.69287109 C7.31149527 179.68076687 14.43641524 179.65908485 21.56149864 179.61286926 C24.40479239 179.59936343 27.24770579 179.60345863 30.09101868 179.60827637 C31.85039747 179.59892833 33.60977215 179.58875765 35.36914062 179.57763672 C36.54076248 179.58685905 36.54076248 179.58685905 37.73605347 179.5962677 C44.75250316 179.51892595 50.76317946 177.86759552 56.6862793 174.06787109 C61.29740538 169.13503854 63.54693011 163.95912851 63.9362793 157.19287109 C63.6454759 150.5251646 60.64657822 145.46567002 55.9987793 140.81787109 C48.36266934 136.09075541 42.4513334 135.78707329 33.56518555 135.85693359 C31.01765701 135.84441126 28.47013096 135.83137371 25.92260742 135.81787109 C21.94043855 135.81396102 17.95870681 135.81778813 13.9765625 135.83251953 C-10.94228781 135.888374 -31.46344485 133.09109661 -49.97387695 114.87255859 C-50.84915039 113.98826172 -51.72442383 113.10396484 -52.6262207 112.19287109 C-53.30555664 111.53544922 -53.98489258 110.87802734 -54.68481445 110.20068359 C-65.69190871 98.77683967 -70.46626139 82.37508547 -71.0012207 66.88037109 C-70.62993888 48.57836116 -62.04420062 32.09540822 -49.6105957 19.08349609 C-35.96605537 6.04537978 -18.65097952 0.08927094 0 0 Z " fill="#1C7981" transform="translate(112.626220703125,417.80712890625)"/>
<path d="M0 0 C0.92914719 -0.04811325 1.85829437 -0.0962265 2.81559753 -0.14579773 C3.82173599 -0.1722084 4.82787445 -0.19861908 5.86450195 -0.22583008 C6.90991653 -0.25574539 7.95533112 -0.28566071 9.03242493 -0.31648254 C11.25395901 -0.36747527 13.47580394 -0.40616623 15.69775391 -0.43359375 C19.05052326 -0.49441333 22.38852023 -0.65674563 25.73754883 -0.8215332 C35.73929776 -1.08752078 43.69449494 -1.06225487 51.47505188 5.80143738 C54.01057096 8.34342291 56.37028201 10.98929798 58.67619324 13.74006653 C61.09847906 16.45900389 63.79988844 18.77440579 66.57852173 21.12033081 C69.52514961 23.64190638 72.24881009 26.37682625 74.9777832 29.12963867 C75.54150635 29.69602051 76.10522949 30.26240234 76.68603516 30.84594727 C80.15467756 34.35417117 83.50095771 37.92800787 86.69262695 41.69213867 C88.78900599 44.12602998 90.97925701 46.46348292 93.1652832 48.81713867 C97.97806082 54.0900149 102.37497207 59.61985552 106.7434082 65.26245117 C109.82755996 69.24336566 113.02849992 73.12428722 116.24731445 76.99682617 C116.96274414 77.8862793 117.67817383 78.77573242 118.4152832 79.69213867 C118.90132523 80.24533279 119.38736725 80.79852692 119.88813782 81.3684845 C124.19799013 86.56124153 125.42976935 90.61697013 125.8762207 97.27416992 C125.99666245 98.61640877 125.99666245 98.61640877 126.11953735 99.98576355 C126.36765747 102.82393684 126.57896993 105.66351475 126.7902832 108.50463867 C126.95335071 110.39871805 127.11869661 112.29260272 127.28637695 114.1862793 C128.04297753 123.06925716 128.4152832 131.74405686 128.4152832 140.69213867 C79.5752832 140.69213867 30.7352832 140.69213867 -19.5847168 140.69213867 C-19.5847168 131.95547307 -19.48994814 123.70141456 -18.59082031 115.08789062 C-18.48513733 114.02086914 -18.37945435 112.95384766 -18.27056885 111.85449219 C-17.92475343 108.37911525 -17.56926405 104.90480388 -17.21362305 101.43041992 C-16.96877794 98.98819563 -16.72456183 96.5459082 -16.48094177 94.1035614 C-15.84130383 87.70729406 -15.19349926 81.3118805 -14.54382324 74.91662598 C-13.88541821 68.42234895 -13.23425772 61.9273464 -12.58276367 55.43237305 C-11.84932369 48.12233609 -11.11523943 40.81237185 -10.37513733 33.50300598 C-10.20606117 31.83122536 -10.20606117 31.83122536 -10.03356934 30.12567139 C-9.82524955 28.06688291 -9.61650426 26.00813741 -9.4072113 23.94944763 C-9.31328094 23.02058746 -9.21935059 22.09172729 -9.12257385 21.13471985 C-9.02964617 20.24035532 -8.93671848 19.34599079 -8.84097481 18.42452431 C-8.66201869 16.51638059 -8.51716758 14.60486666 -8.39832878 12.69203758 C-8.33354395 11.71823961 -8.26875912 10.74444164 -8.20201111 9.74113464 C-8.15413924 8.86781085 -8.10626738 7.99448706 -8.05694485 7.09469891 C-7.0930614 2.19073768 -4.88895447 0.21796771 0 0 Z " fill="#FEFEEC" transform="translate(803.584716796875,123.307861328125)"/>
<path d="M0 0 C1.65 19.14 3.3 38.28 5 58 C-3.04066308 61.71107527 -10.97081858 65.29989093 -19.1875 68.5390625 C-20.1994342 68.94159241 -21.21136841 69.34412231 -22.25396729 69.7588501 C-24.39713031 70.61116756 -26.54087839 71.4620152 -28.68518066 72.3114624 C-34.3299037 74.54825276 -39.96960445 76.79763279 -45.609375 79.046875 C-46.71069763 79.48591156 -47.81202026 79.92494812 -48.94671631 80.37728882 C-56.73851759 83.48699235 -64.50731509 86.6446602 -72.25 89.875 C-85.96944428 95.59597474 -99.73301874 101.20699388 -113.5 106.8125 C-114.68010651 107.29307861 -115.86021301 107.77365723 -117.07608032 108.26879883 C-128.49398433 112.91792801 -139.91340382 117.5632906 -151.33984375 122.19140625 C-152.11745056 122.50638062 -152.89505737 122.82135498 -153.69622803 123.14587402 C-157.38731222 124.64065677 -161.07886654 126.13426612 -164.77099609 127.62646484 C-172.80266004 130.87532486 -180.81904712 134.15902407 -188.82421875 137.47265625 C-190.64459066 138.22482532 -192.46498434 138.97694167 -194.28540039 139.72900391 C-197.77794074 141.17203739 -201.26752315 142.62193623 -204.75561523 144.07568359 C-206.32915864 144.72649255 -207.90280236 145.37705905 -209.4765625 146.02734375 C-210.19651901 146.32963394 -210.91647552 146.63192413 -211.6582489 146.94337463 C-214.60190534 148.15397915 -216.78374261 149 -220 149 C-220.2494613 139.90972672 -219.46441042 130.9701903 -218.5625 121.9375 C-218.35866167 119.83731081 -218.15623932 117.73698949 -217.95419312 115.6366272 C-217.75839784 113.63574451 -217.55144785 111.63596333 -217.34423828 109.63623047 C-217.13153306 107.38939959 -216.9598791 105.13773836 -216.85498047 102.88330078 C-216.80873535 101.99497559 -216.76249023 101.10665039 -216.71484375 100.19140625 C-216.69413818 99.44189697 -216.67343262 98.6923877 -216.65209961 97.92016602 C-215.63149535 94.91490489 -213.80111454 94.39258971 -211 93 C-208.32103582 91.70718359 -205.62000097 90.47187806 -202.90625 89.25390625 C-202.10404022 88.89106537 -201.30183044 88.52822449 -200.47531128 88.15438843 C-197.81831176 86.95387787 -195.15922439 85.75807335 -192.5 84.5625 C-190.61794608 83.71374549 -188.73594842 82.86486621 -186.85400391 82.01586914 C-171.49638362 75.09478369 -156.10415635 68.25187304 -140.70532227 61.4230957 C-128.26477226 55.90484085 -115.8438798 50.34462994 -103.4375 44.75 C-89.47711599 38.45524041 -75.49749722 32.20590625 -61.49902344 25.99633789 C-48.4172674 20.192432 -35.3535292 14.34859491 -22.29443359 8.49389648 C-21.52334763 8.14844788 -20.75226166 7.80299927 -19.95780945 7.44708252 C-18.52758848 6.80633381 -17.09756811 6.16513706 -15.6678009 5.52337646 C-14.39354827 4.95263311 -13.11828986 4.3841283 -11.84188843 3.81820679 C-10.58184644 3.25846881 -9.32481866 2.6919092 -8.07046509 2.11953735 C-5.1941484 0.83234695 -3.18985258 0 0 0 Z " fill="#1C7981" transform="translate(962,399)"/>
<path d="M0 0 C-0.19335938 0.65484375 -0.38671875 1.3096875 -0.5859375 1.984375 C-0.84632813 2.89703125 -1.10671875 3.8096875 -1.375 4.75 C-1.75785156 6.07257813 -1.75785156 6.07257813 -2.1484375 7.421875 C-4.35944787 16.71217544 -5.38892153 25.7674623 -5.375 35.3125 C-5.37411377 36.42971436 -5.37322754 37.54692871 -5.37231445 38.69799805 C-5.21423779 50.06427187 -3.39274427 60.91589701 -1 72 C-0.74992187 73.216875 -0.49984375 74.43375 -0.2421875 75.6875 C0.43758035 78.81286943 1.19999538 81.90333139 2 85 C2.30035156 86.21816406 2.60070312 87.43632813 2.91015625 88.69140625 C8.01216461 108.62388948 15.15560507 128.61074019 23.7578125 147.296875 C27.97025316 156.46356977 26.6106353 166.67459492 23.375 175.98828125 C18.97230293 185.63168876 11.52251163 190.0499211 2 194 C-5.7695824 196.5898608 -15.23640835 195.92911316 -22.625 192.44140625 C-31.37611824 187.1302835 -38.16675991 180.03935821 -41 170 C-42.08348847 162.6877457 -41.74863768 155.21716724 -41.65625 147.84765625 C-41.65012089 145.69877148 -41.64637926 143.54987872 -41.64489746 141.40098572 C-41.63573193 136.91325083 -41.6070448 132.42624182 -41.5625 127.9387207 C-41.50597327 122.21864221 -41.48407444 116.49913326 -41.4751358 110.77880192 C-41.46476766 105.2808485 -41.4357382 99.78303411 -41.40625 94.28515625 C-41.40248856 93.25283434 -41.39872711 92.22051243 -41.39485168 91.15690804 C-41.23335197 56.84926617 -31.61940302 29.3101586 -7.05249023 4.67163086 C-2.26726349 0 -2.26726349 0 0 0 Z " fill="#FDFEEC" transform="translate(481,445)"/>
<path d="M0 0 C0.92701721 0.00245728 1.85403442 0.00491455 2.80914307 0.00744629 C39.62890765 0.18208291 77.89672633 6.7197392 105.51171875 33.3046875 C107.62562079 35.37823616 107.62562079 35.37823616 110.12890625 37.265625 C125.5740348 49.93111383 138.06886173 74.00886153 142.625 93.3125 C142.71875 96.140625 142.71875 96.140625 142.625 98.3125 C138.1542102 98.70194995 138.1542102 98.70194995 135.82324219 96.98657227 C135.27829102 96.37354248 134.73333984 95.7605127 134.171875 95.12890625 C133.55731445 94.45287354 132.94275391 93.77684082 132.30957031 93.08032227 C131.67116211 92.35256592 131.03275391 91.62480957 130.375 90.875 C129.03213732 89.39502773 127.68839232 87.91585554 126.34375 86.4375 C125.70050781 85.72207031 125.05726563 85.00664062 124.39453125 84.26953125 C118.48067587 77.72904218 112.17360987 71.98442662 105.2890625 66.484375 C102.93442948 64.56476216 100.71847027 62.57285639 98.5 60.5 C84.09286753 47.56456386 66.81783863 37.52389222 49.44091797 29.18798828 C47.85006505 28.4210081 46.26978155 27.63218395 44.69140625 26.83984375 C31.52038184 20.44025239 17.03318805 18.10382636 2.625 16.3125 C0.95993408 16.10512207 0.95993408 16.10512207 -0.73876953 15.89355469 C-18.37673112 13.79734624 -35.86520755 13.03778381 -53.625 13.0625 C-54.56511932 13.06327545 -55.50523865 13.0640509 -56.47384644 13.06484985 C-66.81813975 13.08965034 -77.0739833 13.28953529 -87.375 14.3125 C-77.77706254 7.91387503 -63.5176325 6.76770494 -52.30029297 4.83007812 C-49.37104714 4.31180061 -46.45466759 3.74214869 -43.53515625 3.171875 C-28.97164997 0.50876135 -14.7665323 -0.04073872 0 0 Z " fill="#ABD9D6" transform="translate(220.375,310.6875)"/>
<path d="M0 0 C5.03049028 2.86585507 8.4326611 7.03459207 10.6875 12.375 C11.67637937 19.13617524 10.66543901 24.79033643 6.6875 30.375 C1.66923387 35.26120649 -3.62521916 37.74395395 -10.63061523 37.77905273 C-12.47930458 37.79807899 -12.47930458 37.79807899 -14.36534119 37.81748962 C-15.70059375 37.81543605 -17.03584516 37.81244625 -18.37109375 37.80859375 C-19.76148227 37.81316418 -21.15186853 37.8184723 -22.54225159 37.82447815 C-25.45656499 37.83339788 -28.37060433 37.83100513 -31.28491211 37.82104492 C-34.97621063 37.80964486 -38.6665396 37.82963212 -42.35771084 37.85896206 C-45.23297419 37.87754405 -48.10801555 37.87698713 -50.98332405 37.87132454 C-52.99196098 37.87110116 -55.00057764 37.88782807 -57.00914001 37.90513611 C-75.76074866 37.76561844 -93.54724451 31.42050357 -107.3125 18.375 C-107.6425 17.715 -107.9725 17.055 -108.3125 16.375 C-107.03375 16.54 -105.755 16.705 -104.4375 16.875 C-76.09889259 19.48357474 -47.0513246 12.62876522 -21.2331543 0.91479492 C-14.17403801 -2.14681947 -7.22516125 -3.13472605 0 0 Z " fill="#FAFCEB" transform="translate(172.3125,512.625)"/>
<path d="M0 0 C5.55309575 3.33929878 9.35046037 8.26226496 11.33203125 14.40234375 C12.31816808 22.97020787 10.88231073 29.50191631 6.20703125 36.65234375 C-0.11500643 42.69951023 -7.8949645 44.53487813 -16.46801758 44.51586914 C-18.17922539 44.51575584 -18.17922539 44.51575584 -19.92500305 44.51564026 C-21.14600204 44.51047897 -22.36700104 44.50531769 -23.625 44.5 C-24.88309982 44.49858505 -26.14119965 44.4971701 -27.43742371 44.49571228 C-30.76975404 44.49106948 -34.10201507 44.48209603 -37.43432617 44.4710083 C-40.83967492 44.46074878 -44.24503085 44.45620496 -47.65039062 44.45117188 C-54.32293573 44.44015205 -60.99544824 44.42342075 -67.66796875 44.40234375 C-64.94371072 41.63801784 -62.20233585 39.18214425 -59.10546875 36.83984375 C-56.93883544 35.19934062 -54.90186709 33.6450893 -53.015625 31.6875 C-51.66796875 30.40234375 -51.66796875 30.40234375 -49.66796875 30.40234375 C-49.43207031 29.85707031 -49.19617188 29.31179688 -48.953125 28.75 C-47.01506392 25.20965135 -44.36983362 22.32550694 -41.76220703 19.26147461 C-39.552277 16.65621177 -37.38912453 14.04428762 -35.2890625 11.34765625 C-25.86749643 -0.74471898 -15.00021652 -6.63789109 0 0 Z " fill="#FBFDEB" transform="translate(409.66796875,595.59765625)"/>
<path d="M0 0 C8.16996784 4.3295395 13.23945843 9.75554595 17.13671875 18.12109375 C17.45769531 18.79398438 17.77867187 19.466875 18.109375 20.16015625 C20.46894736 25.66948335 20.13671875 28.59459331 20.13671875 35.12109375 C-4.28328125 35.12109375 -28.70328125 35.12109375 -53.86328125 35.12109375 C-53.86328125 24.09369322 -50.80511513 14.07431045 -42.82421875 6.078125 C-30.26194581 -4.33124957 -14.80436254 -6.98318988 0 0 Z " fill="#F9FBEA" transform="translate(563.86328125,495.87890625)"/>
<path d="M0 0 C14.6408995 3.40429543 27.50778563 9.76455046 40 18 C39.55513021 26.92181587 38.05765394 35.47872099 36.15356445 44.18041992 C35.69076485 46.29756447 35.23997869 48.41699236 34.79101562 50.53710938 C32.8132665 59.77851862 30.49790566 68.88512571 28 78 C21.07 78 14.14 78 7 78 C5.17620267 65.29307562 3.91303847 52.55332614 2.71289062 39.77368164 C2.37404316 36.17734465 2.02708077 32.58184849 1.6796875 28.98632812 C1.46044573 26.67192153 1.24167912 24.35746987 1.0234375 22.04296875 C0.92034271 20.98232712 0.81724792 19.92168549 0.71102905 18.8289032 C0.12821367 12.53121913 -0.12898223 6.32401285 0 0 Z " fill="#5AB5BF" transform="translate(978,573)"/>
<path d="M0 0 C0.66 0.33 1.32 0.66 2 1 C1.8125 2.8125 1.8125 2.8125 1 5 C0.28585937 5.42152344 -0.42828125 5.84304688 -1.1640625 6.27734375 C-21.0426678 18.35236433 -32.32693446 43.20571526 -38.30859375 64.69140625 C-39.84156349 72.02714282 -40.15835817 79.35205158 -40.20874023 86.82739258 C-40.21852402 87.76528122 -40.2283078 88.70316986 -40.23838806 89.66947937 C-40.26807484 92.74448272 -40.28964812 95.81944365 -40.30859375 98.89453125 C-40.31516558 99.9524909 -40.3217374 101.01045055 -40.32850838 102.10046959 C-40.36097893 107.69693034 -40.38546389 113.29337298 -40.4050293 118.88989258 C-40.42285045 123.49987572 -40.45770283 128.10924818 -40.50756836 132.71899414 C-40.56797403 138.31210907 -40.59853106 143.90465758 -40.60820198 149.49808311 C-40.61671795 151.61783144 -40.63543962 153.73756617 -40.6649456 155.85712624 C-40.83593801 168.83468862 -40.91420382 179.26634215 -31.8200531 189.43830872 C-24.98742614 196.24333582 -17.69147132 199.15205734 -8.125 199.5625 C1.27663829 199.26582153 9.77444848 196.08511748 16.609375 189.515625 C21.17343187 184.54131583 22.76642631 179.8694158 24.19140625 173.390625 C25 171 25 171 28 169 C29.74788798 174.24366394 27.1191332 179.08996226 25 184 C19.86177248 192.76286864 11.69714587 198.93964732 2 202 C-10.17044998 204.01389629 -20.89270685 202.2004463 -31 195 C-38.07082691 189.11886778 -43.13968065 180.96126275 -44.28149414 171.72229385 C-44.74187885 165.1513013 -44.64998343 158.57103222 -44.59375 151.98828125 C-44.59203501 149.84897428 -44.59210852 147.70966521 -44.59387207 145.57035828 C-44.59222498 141.09951496 -44.57364671 136.62917672 -44.54199219 132.15844727 C-44.50243832 126.47455663 -44.49793732 120.79132954 -44.50545502 115.10732746 C-44.50855049 110.69132082 -44.49631143 106.27545867 -44.47932434 101.85948753 C-44.47237197 99.76627702 -44.46916019 97.67305014 -44.47001648 95.57982826 C-44.45158958 65.92980193 -37.79729252 39.77113475 -18 17 C-17.52304687 16.3915625 -17.04609375 15.783125 -16.5546875 15.15625 C-12.12295582 9.58493018 -6.54977898 5.40578706 -1 1 C-0.67 0.67 -0.34 0.34 0 0 Z " fill="#2E848A" transform="translate(481,440)"/>
<path d="M0 0 C0.73046875 1.84765625 0.73046875 1.84765625 1.1875 4.0625 C1.34605469 4.79597656 1.50460937 5.52945313 1.66796875 6.28515625 C1.83232422 7.13400391 1.83232422 7.13400391 2 8 C-62.95141956 24.65127462 -62.95141956 24.65127462 -75 24 C-74.62488281 23.56429687 -74.24976563 23.12859375 -73.86328125 22.6796875 C-73.35152344 22.08414063 -72.83976562 21.48859375 -72.3125 20.875 C-71.81363281 20.29492188 -71.31476563 19.71484375 -70.80078125 19.1171875 C-68.85564898 16.91840695 -68.85564898 16.91840695 -66.97265625 13.9140625 C-63.36027255 9.61370197 -58.42183524 9.3476927 -53.125 8.5 C-50.89315381 8.09937792 -48.6613868 7.69831452 -46.4296875 7.296875 C-45.23827148 7.09126953 -44.04685547 6.88566406 -42.81933594 6.67382812 C-36.63670498 5.58305457 -30.47986075 4.36259073 -24.3192749 3.15454102 C-19.8869836 2.28803284 -15.45139578 1.43854651 -11.01660156 0.58496094 C-9.09966049 0.21323944 -7.18858584 -0.19138505 -5.28808594 -0.63964844 C-3 -1 -3 -1 0 0 Z " fill="#ACDAD7" transform="translate(577,619)"/>
<path d="M0 0 C14.62363254 3.25313859 27.56898918 9.80489869 40 18 C39.67 21.96 39.34 25.92 39 30 C38.505 29.01 38.505 29.01 38 28 C35.90717843 27.72637267 33.81155727 27.46711817 31.70947266 27.27734375 C26.82907622 26.77778254 22.01587405 25.85589675 17.1875 25 C15.65319336 24.73316406 15.65319336 24.73316406 14.08789062 24.4609375 C4.2722494 22.73821854 4.2722494 22.73821854 2 22 C-1.13462645 15.73074711 -0.13119389 6.85123649 0 0 Z " fill="#AAD9D6" transform="translate(978,573)"/>
<path d="M0 0 C-0.33 6.27 -0.66 12.54 -1 19 C-1.33 19 -1.66 19 -2 19 C-2 16.36 -2 13.72 -2 11 C-23.02955899 13.47315991 -43.98597437 16.75982339 -64.62890625 21.51953125 C-67 22 -67 22 -70 22 C-70 24.31 -70 26.62 -70 29 C-70.33 29 -70.66 29 -71 29 C-71 24.38 -71 19.76 -71 15 C-70.05084717 14.78907715 -69.10169434 14.5781543 -68.1237793 14.36083984 C-67.48925339 14.21983353 -66.85472748 14.07882721 -66.20097351 13.93354797 C-64.75803216 13.61289549 -63.31508983 13.29224744 -61.87214661 12.97160339 C-57.83661668 12.07483974 -53.80110471 11.17799547 -49.765625 10.28100586 C-42.09020523 8.57502665 -34.41463761 6.86972911 -26.73828125 5.16796875 C-24.89133667 4.75828857 -24.89133667 4.75828857 -23.00708008 4.34033203 C-20.71404439 3.83176178 -18.42091663 3.32360643 -16.12768555 2.81591797 C-15.10586182 2.5892041 -14.08403809 2.36249023 -13.03125 2.12890625 C-11.70963867 1.83608765 -11.70963867 1.83608765 -10.36132812 1.53735352 C-8.87845694 1.19990526 -7.40137791 0.83455773 -5.93554688 0.42944336 C-4 0 -4 0 0 0 Z " fill="#ADDAD7" transform="translate(738,582)"/>
<path d="M0 0 C9.00384593 -0.56473827 14.00638463 1.8685379 21.05078125 7.29296875 C22.04078125 7.95296875 23.03078125 8.61296875 24.05078125 9.29296875 C6.36328267 11.52382443 -11.15919089 11.50977794 -28.94921875 11.29296875 C-28.94921875 10.96296875 -28.94921875 10.63296875 -28.94921875 10.29296875 C-28.08039063 10.06222656 -27.2115625 9.83148437 -26.31640625 9.59375 C-18.87807748 7.71285092 -18.87807748 7.71285092 -12.57421875 3.60546875 C-8.57340909 0.08094595 -5.11981595 0.50859099 0 0 Z " fill="#ACDAD7" transform="translate(432.94921875,640.70703125)"/>
<path d="M0 0 C8.248656 0.18593282 13.70730766 1.91172158 19.72265625 7.640625 C25.62963644 14.08460339 27.59067438 20.30502248 27.3515625 29 C26.50293178 36.24164881 23.01688719 41.86074971 18 47 C13.87573964 50.1183432 13.87573964 50.1183432 10.6875 49.6875 C10.130625 49.460625 9.57375 49.23375 9 49 C10 47 10 47 13.25 45.375 C18.11638727 42.71150409 20.94134788 38.31755952 22.61328125 33.078125 C23.87457631 26.30025658 23.81344777 19.73097734 20.23828125 13.7109375 C15.0892098 6.59644762 8.2022642 5.17834613 0 3 C0 2.01 0 1.02 0 0 Z " fill="#31868B" transform="translate(397,590)"/>
<path d="M0 0 C2.41825928 2.41825928 3.80740053 4.11312546 5.48046875 6.9765625 C5.92197266 7.729375 6.36347656 8.4821875 6.81835938 9.2578125 C7.27017578 10.03898438 7.72199219 10.82015625 8.1875 11.625 C8.65091797 12.41390625 9.11433594 13.2028125 9.59179688 14.015625 C13 19.85825893 13 19.85825893 13 21 C9.37 21 5.74 21 2 21 C1.34 14.07 0.68 7.14 0 0 Z " fill="#F4F9E7" transform="translate(948,243)"/>
<path d="M0 0 C0.66 0.33 1.32 0.66 2 1 C1.8125 2.8125 1.8125 2.8125 1 5 C0.27296875 5.42539062 -0.4540625 5.85078125 -1.203125 6.2890625 C-4.4812496 8.29439571 -6.94161848 10.7962159 -9.5625 13.5625 C-15.12545134 19.43152844 -15.12545134 19.43152844 -19 21 C-19.66 21.33 -20.32 21.66 -21 22 C-16.81286101 12.9245265 -8.65422619 7.05187088 -1 1 C-0.67 0.67 -0.34 0.34 0 0 Z " fill="#35888D" transform="translate(481,440)"/>
<path d="M0 0 C0.66 0.33 1.32 0.66 2 1 C1 4 1 4 -1.3984375 5.38671875 C-2.38070313 5.81597656 -3.36296875 6.24523437 -4.375 6.6875 C-5.35210937 7.12449219 -6.32921875 7.56148437 -7.3359375 8.01171875 C-10 9 -10 9 -13 9 C-13 8.01 -13 7.02 -13 6 C-12.14535156 5.65066406 -11.29070312 5.30132813 -10.41015625 4.94140625 C-9.30542969 4.48636719 -8.20070313 4.03132812 -7.0625 3.5625 C-5.96035156 3.11003906 -4.85820312 2.65757812 -3.72265625 2.19140625 C-1.13431084 1.25575392 -1.13431084 1.25575392 0 0 Z " fill="#388A8F" transform="translate(493,633)"/>
<path d="M0 0 C-0.33 0.66 -0.66 1.32 -1 2 C-3.72265625 2.4140625 -3.72265625 2.4140625 -7.0625 2.625 C-8.16722656 2.69976562 -9.27195313 2.77453125 -10.41015625 2.8515625 C-11.26480469 2.90054687 -12.11945313 2.94953125 -13 3 C-8.8341563 0.22277086 -4.9360889 -1.89849573 0 0 Z " fill="#B5DED9" transform="translate(146,322)"/>
<path d="M0 0 C0 3 0 3 -2.5 5.6875 C-3.325 6.450625 -4.15 7.21375 -5 8 C-5.66 7.67 -6.32 7.34 -7 7 C-4.78071806 4.09197539 -3.07030857 2.04687238 0 0 Z " fill="#278086" transform="translate(501,627)"/>
<path d="M0 0 C2.00720923 0.28674418 4.0085944 0.61866701 6 1 C6 1.66 6 2.32 6 3 C6.66 3.33 7.32 3.66 8 4 C1.25 3.25 1.25 3.25 -1 1 C-0.67 0.67 -0.34 0.34 0 0 Z " fill="#398A8F" transform="translate(460,638)"/>
<path d="M0 0 C4.75 1.875 4.75 1.875 7 3 C7 3.66 7 4.32 7 5 C3.31245243 4.50168276 1.39509338 3.89932357 -1 1 C-0.67 0.67 -0.34 0.34 0 0 Z " fill="#278086" transform="translate(453,634)"/>
<path d="M0 0 C0.66 0.33 1.32 0.66 2 1 C1.67 2.98 1.34 4.96 1 7 C0.01 7 -0.98 7 -2 7 C-2.125 4.625 -2.125 4.625 -2 2 C-1.34 1.34 -0.68 0.68 0 0 Z " fill="#3B8B90" transform="translate(508,609)"/>
</svg>
