<?xml version="1.0" encoding="UTF-8"?>
<svg version="1.1" xmlns="http://www.w3.org/2000/svg" width="1024" height="1024">
<path d="M0 0 C0.54333984 0.41717285 1.08667969 0.8343457 1.64648438 1.26416016 C14.28792492 10.9902856 26.3190247 21.32103264 37.98046875 32.19921875 C40.63765403 34.67540371 43.34273983 37.09255678 46.0625 39.5 C53.89303397 46.52707527 61.42488577 53.94545742 68.2421875 61.96484375 C70.3526414 64.40828038 72.55292879 66.75918821 74.75 69.125 C79.57239926 74.40841771 83.97763122 79.94903146 88.3515625 85.60546875 C90.6454748 88.56740662 93.02657913 91.44463564 95.4375 94.3125 C113.96833642 116.86604469 129.09874565 142.41152919 143 168 C143.44102051 168.80679199 143.88204102 169.61358398 144.33642578 170.44482422 C183.89483746 243.10400416 202.5392215 326.05606408 202.3125 408.4375 C202.31027727 409.86626173 202.30810077 411.29502353 202.30596924 412.7237854 C202.26347689 433.28453499 201.91849334 453.60696278 199 474 C198.90054077 474.7130127 198.80108154 475.42602539 198.6986084 476.16064453 C191.88594288 524.95980701 179.21192617 572.96778374 159 618 C158.47535156 619.18851563 157.95070313 620.37703125 157.41015625 621.6015625 C139.97085482 660.06183119 117.43309805 696.10348001 91 729 C90.24976563 729.93457031 89.49953125 730.86914062 88.7265625 731.83203125 C83.067559 738.80874496 77.22867056 745.62801418 71.35546875 752.42431641 C70.14498363 753.83146175 68.94664269 755.24903306 67.75 756.66796875 C67.13125 757.39628906 66.5125 758.12460937 65.875 758.875 C65.35679687 759.49117187 64.83859375 760.10734375 64.3046875 760.7421875 C63 762 63 762 61 762 C60.73123047 762.59329102 60.46246094 763.18658203 60.18554688 763.79785156 C58.99709268 766.00540033 57.79257611 767.46542882 56.03125 769.234375 C55.46019531 769.80800781 54.88914062 770.38164063 54.30078125 770.97265625 C53.40939453 771.85244141 53.40939453 771.85244141 52.5 772.75 C51.90574219 773.35199219 51.31148437 773.95398438 50.69921875 774.57421875 C49.84263672 775.42693359 49.84263672 775.42693359 48.96875 776.296875 C48.44732422 776.81604492 47.92589844 777.33521484 47.38867188 777.87011719 C46 779 46 779 44 779 C44 779.66 44 780.32 44 781 C42.671875 782.33984375 42.671875 782.33984375 40.75 783.9375 C37.67097176 786.54951514 34.66253124 789.21448563 31.70556641 791.96435547 C25.67193063 797.57103728 19.46137676 802.88853529 13 808 C12.35289062 808.51433594 11.70578125 809.02867187 11.0390625 809.55859375 C-12.9353939 828.57130368 -38.21713348 845.19550966 -65 860 C-65.71929688 860.40025391 -66.43859375 860.80050781 -67.1796875 861.21289062 C-120.47386497 890.72579834 -180.1853565 909.02523091 -240.375 917.25 C-241.47650391 917.40114258 -242.57800781 917.55228516 -243.71289062 917.70800781 C-265.54672767 920.50835229 -287.31387283 921.37786028 -309.3125 921.3125 C-310.62427216 921.31034485 -311.93604431 921.3081897 -313.28756714 921.30596924 C-346.54280894 921.23205154 -378.38642308 918.42076945 -411 912 C-412.20446777 911.76410156 -413.40893555 911.52820313 -414.64990234 911.28515625 C-467.92869337 900.62488098 -519.47970028 880.82466613 -566.40478516 853.50634766 C-568.74432255 852.14840356 -571.09379241 850.81058556 -573.44921875 849.48046875 C-597.92187068 835.54904245 -620.82026719 818.52445658 -642 800 C-642.72960937 799.36964844 -643.45921875 798.73929688 -644.2109375 798.08984375 C-648.77059478 794.13393555 -653.24044001 790.08036356 -657.703125 786.015625 C-659.93914975 783.98573474 -659.93914975 783.98573474 -662.296875 782.359375 C-663.13992188 781.68648437 -663.13992188 781.68648437 -664 781 C-664 780.34 -664 779.68 -664 779 C-664.58934326 778.73590332 -665.17868652 778.47180664 -665.78588867 778.19970703 C-668.08447149 776.95422948 -669.58939517 775.65447786 -671.42578125 773.8046875 C-672.05395752 773.17530273 -672.68213379 772.54591797 -673.3293457 771.89746094 C-673.98378662 771.23004883 -674.63822754 770.56263672 -675.3125 769.875 C-675.98821045 769.19211914 -676.6639209 768.50923828 -677.36010742 767.80566406 C-681.15128291 763.95247371 -684.8614376 760.06347348 -688.34765625 755.9296875 C-690.41558631 753.51465807 -692.58607434 751.20434275 -694.75 748.875 C-699.49875287 743.6671532 -703.85233192 738.22300397 -708.16015625 732.6484375 C-710.03096799 730.22936232 -711.93228548 727.84147526 -713.87109375 725.4765625 C-732.50810982 702.71113292 -747.88611937 677.75869697 -762 652 C-762.5053125 651.0826709 -763.010625 650.1653418 -763.53125 649.22021484 C-791.83376919 597.52573725 -809.38857686 540.1437738 -817.8125 481.9375 C-817.91195923 481.25843597 -818.01141846 480.57937195 -818.1138916 479.87973022 C-821.49229938 456.48771174 -822.37748123 433.17405216 -822.3125 409.5625 C-822.31027727 408.13373827 -822.30810077 406.70497647 -822.30596924 405.2762146 C-822.26347689 384.71546501 -821.91849334 364.39303722 -819 344 C-818.90054077 343.2869873 -818.80108154 342.57397461 -818.6986084 341.83935547 C-809.22788108 274.00048093 -787.71306444 209.16663087 -753 150 C-752.48405273 149.1140918 -751.96810547 148.22818359 -751.43652344 147.31542969 C-744.75658006 135.86833942 -737.72745567 124.76822342 -730 114 C-729.46648926 113.25395508 -728.93297852 112.50791016 -728.38330078 111.73925781 C-720.03235599 100.10818723 -711.23381668 88.93982729 -702 78 C-701.00507346 76.80870638 -700.01027642 75.61730459 -699.015625 74.42578125 C-686.45200206 59.47684782 -673.04038118 44.60684004 -658.18359375 31.90234375 C-655.99205464 29.99307802 -653.85658184 28.02991844 -651.7265625 26.05249023 C-645.67987399 20.44414828 -639.45604732 15.13688203 -633 10 C-632.48775879 9.58814453 -631.97551758 9.17628906 -631.44775391 8.75195312 C-609.61018695 -8.80257335 -586.46724465 -24.35341687 -562 -38 C-561.04416016 -38.53737793 -560.08832031 -39.07475586 -559.10351562 -39.62841797 C-509.03169395 -67.66383889 -454.74573702 -86.35743861 -398.30078125 -96.41113281 C-395.56130316 -96.89986219 -392.82741342 -97.40982416 -390.09375 -97.9296875 C-385.41418659 -98.78560223 -380.72214937 -99.42821573 -376 -100 C-374.90107422 -100.13535156 -373.80214844 -100.27070312 -372.66992188 -100.41015625 C-276.98944431 -111.57204065 -181.09386235 -95.99878692 0 0 Z " fill="#FEFEEC" transform="translate(822,103)"/>
<path d="M0 0 C0.95185181 0.00016113 1.90370361 0.00032227 2.88439941 0.00048828 C20.05129315 0.02060096 36.9098987 1.12887855 53.9375 3.3125 C54.14705991 8.44671771 53.41210597 12.415086 51.9375 17.3125 C49.9063147 29.12346635 49.72835658 41.04590459 49.6875 53 C49.67973541 54.0319046 49.67973541 54.0319046 49.67181396 55.08465576 C49.58947814 68.97872288 50.97562236 82.50398531 54.125 96.0625 C54.33350586 96.97644531 54.54201172 97.89039063 54.75683594 98.83203125 C56.54512983 106.33615628 58.9149931 113.56900065 61.61401367 120.79199219 C64.16923532 127.64127635 65.79645132 132.25953714 62.73901367 139.17236328 C62.41263916 139.8786084 62.08626465 140.58485352 61.75 141.3125 C48.82238062 171.04570354 48.37383127 203.93331256 60.03125 234.15625 C62.04452786 238.94646283 64.52976443 243.47411843 67.10546875 247.98046875 C68.9375 251.3125 68.9375 251.3125 70.39453125 254.7890625 C72.08603089 258.65167687 74.09620397 262.00745131 76.4375 265.5 C76.86530762 266.14348389 77.29311523 266.78696777 77.73388672 267.44995117 C81.24659211 272.59341958 85.18595432 277.17825973 89.53320312 281.6315918 C92.9375 285.13257366 92.9375 285.13257366 92.9375 287.3125 C93.50855469 287.56 94.07960938 287.8075 94.66796875 288.0625 C97.29273969 289.50815697 99.09606226 291.22924416 101.25 293.3125 C114.78688607 305.64214915 130.83609057 313.72945003 148.0625 319.625 C148.72934814 319.85541992 149.39619629 320.08583984 150.08325195 320.32324219 C162.23350779 324.26574331 174.93884251 325.96257101 187.625 327 C188.37752045 327.06253967 189.13004089 327.12507935 189.90536499 327.18951416 C225.57292119 330.03217302 262.44902192 330.25376433 297.97363281 325.6796875 C300.70761805 325.34097961 303.43462927 325.07276992 306.1796875 324.84375 C316.95851269 323.93199903 327.40925744 321.96205597 337.98828125 319.7265625 C341.81494119 318.92075148 345.64255901 318.18246699 349.4987793 317.53588867 C365.54488633 314.81879063 381.24919612 310.92173271 397.00860596 306.91229248 C399.83305042 306.19524606 402.65903347 305.48438308 405.48512077 304.77384377 C421.22479323 300.84132122 421.22479323 300.84132122 436.90869141 296.69482422 C437.78278152 296.45718857 438.65687164 296.21955292 439.55744934 295.97471619 C441.10291321 295.55121172 442.64639679 295.12036044 444.1870575 294.67970276 C448.53365355 293.48669579 452.43407438 292.96189821 456.9375 293.3125 C459.01171875 295.21875 459.01171875 295.21875 460.625 297.8125 C461.20121094 298.73289062 461.77742187 299.65328125 462.37109375 300.6015625 C462.88800781 301.49617188 463.40492188 302.39078125 463.9375 303.3125 C464.34097656 303.98023438 464.74445312 304.64796875 465.16015625 305.3359375 C472.11133367 317.86391505 473.11534344 334.21235651 470.12890625 348.0625 C463.82815727 365.85285007 451.62381602 379.32824595 434.90625 387.859375 C418.42673009 394.93391637 399.28738677 393.60444171 381.72387695 393.58374023 C379.23327465 393.58813664 376.74267382 393.59344209 374.2520752 393.59957886 C368.92399838 393.61100594 363.59596305 393.61672653 358.26787758 393.61746025 C350.54838236 393.61879696 342.82895816 393.63400357 335.10948827 393.65295542 C322.55827118 393.68367636 310.00705229 393.7078986 297.45581055 393.72583008 C296.70731746 393.72690276 295.95882438 393.72797544 295.18764969 393.72908062 C286.83396372 393.74090518 278.48027702 393.75111362 270.12658691 393.75952148 C267.09374998 393.76259599 264.06091306 393.7656847 261.02807617 393.76879883 C259.90536547 393.76994684 259.90536547 393.76994684 258.75997374 393.77111804 C246.24667397 393.78423291 233.73342618 393.80891164 221.22016495 393.84254223 C213.52626396 393.86273077 205.83247441 393.87313576 198.13854673 393.87055302 C192.2380553 393.86938856 186.33766299 393.8836311 180.43720245 393.90336227 C178.02949594 393.90893418 175.62177132 393.90947266 173.21406364 393.90442467 C157.25459055 393.87448687 142.24538655 394.10754371 127.5625 401.125 C126.80066406 401.47828369 126.03882813 401.83156738 125.25390625 402.19555664 C105.00008582 411.78181491 91.06838632 427.59992205 82.9375 448.3125 C76.52070579 467.00779663 77.34930444 487.38718318 85.5078125 505.41796875 C96.61177249 527.89893693 113.91825919 542.65287644 137.625 550.75 C142.70975158 552.35381839 147.48504965 553.43590247 152.8317728 553.44392776 C153.79632784 553.44776891 154.76088288 553.45161005 155.75466686 553.4555676 C156.80657788 553.45470112 157.85848889 553.45383463 158.942276 553.45294189 C160.62801709 553.45739858 160.62801709 553.45739858 162.34781355 553.4619453 C166.12258958 553.47063274 169.8973339 553.47214067 173.67211914 553.47363281 C176.37616157 553.47772415 179.08020066 553.4832659 181.78424072 553.48867798 C189.14302636 553.50225688 196.50180654 553.50828751 203.86060262 553.51268864 C208.46719874 553.51545614 213.07379278 553.51969484 217.6803875 553.52419281 C230.46314518 553.53639308 243.24590121 553.54668557 256.02866459 553.5500679 C256.84690878 553.55028747 257.66515297 553.55050703 258.50819245 553.55073325 C259.32830957 553.55095153 260.1484267 553.55116981 260.99339586 553.5513947 C262.65502107 553.55183815 264.31664628 553.55228471 265.97827148 553.55273438 C267.21458547 553.55306652 267.21458547 553.55306652 268.47587549 553.55340537 C281.77447857 553.55733729 295.0730263 553.57473846 308.37160809 553.5980939 C322.063134 553.62194238 335.75463235 553.63427612 349.44617933 553.63543582 C357.11755757 553.63634593 364.78886403 553.64192686 372.46022224 553.66025543 C379.00630748 553.6758408 385.55229885 553.68067118 392.09839917 553.67251733 C395.42547819 553.66867242 398.75221934 553.6709405 402.07929802 553.68357468 C419.72611496 553.74656697 437.49711901 553.31228491 454.9375 550.3125 C455.2675 549.9825 455.5975 549.6525 455.9375 549.3125 C457.90331986 549.07926714 459.86925641 548.84694935 461.8359375 548.62109375 C464.68232811 548.20312933 467.22556139 547.2696548 469.9375 546.3125 C471.61359948 545.85738164 473.29231003 545.41183592 474.97265625 544.97265625 C532.03515577 529.513044 580.46029247 490.20374143 609.9375 439.3125 C612.85371639 434.09355816 615.46378627 428.75338516 617.9375 423.3125 C618.2670166 422.5915918 618.5965332 421.87068359 618.93603516 421.12792969 C625.91286384 405.67947592 632.57203287 389.18683091 634.6484375 372.26171875 C634.9375 370.3125 634.9375 370.3125 635.9375 369.3125 C642.538575 338.82241223 641.88730839 299.37196547 629.5234375 270.27172852 C628.81139944 267.89085125 628.84358841 265.78381555 628.9375 263.3125 C644.3559389 262.28970432 659.73838267 262.11233196 675.1875 262.125 C676.43706482 262.12527191 677.68662964 262.12554382 678.97406006 262.12582397 C711.14409386 262.15786431 742.96447191 263.78199098 774.9375 267.3125 C775.91460938 267.41643066 776.89171875 267.52036133 777.8984375 267.62744141 C801.65807593 270.16895735 825.29421635 273.88115671 848.9375 277.3125 C849.07967945 282.76182997 848.67548001 287.69092098 847.46875 293.01953125 C847.31319138 293.73367188 847.15763275 294.4478125 846.99736023 295.18359375 C846.48813324 297.49993743 845.96443059 299.81262328 845.4375 302.125 C845.2573233 302.9241684 845.07714661 303.72333679 844.89151001 304.54672241 C837.6316871 336.63342112 827.4194524 368.27468021 813.9375 398.3125 C813.15052734 400.09527344 813.15052734 400.09527344 812.34765625 401.9140625 C794.90835482 440.37433119 772.37059805 476.41598001 745.9375 509.3125 C745.18726563 510.24707031 744.43703125 511.18164062 743.6640625 512.14453125 C738.005059 519.12124496 732.16617056 525.94051418 726.29296875 532.73681641 C725.08248363 534.14396175 723.88414269 535.56153306 722.6875 536.98046875 C722.06875 537.70878906 721.45 538.43710937 720.8125 539.1875 C720.29429687 539.80367187 719.77609375 540.41984375 719.2421875 541.0546875 C717.9375 542.3125 717.9375 542.3125 715.9375 542.3125 C715.66873047 542.90579102 715.39996094 543.49908203 715.12304688 544.11035156 C713.93459268 546.31790033 712.73007611 547.77792882 710.96875 549.546875 C710.39769531 550.12050781 709.82664062 550.69414063 709.23828125 551.28515625 C708.34689453 552.16494141 708.34689453 552.16494141 707.4375 553.0625 C706.84324219 553.66449219 706.24898437 554.26648438 705.63671875 554.88671875 C704.78013672 555.73943359 704.78013672 555.73943359 703.90625 556.609375 C703.38482422 557.12854492 702.86339844 557.64771484 702.32617188 558.18261719 C700.9375 559.3125 700.9375 559.3125 698.9375 559.3125 C698.9375 559.9725 698.9375 560.6325 698.9375 561.3125 C697.609375 562.65234375 697.609375 562.65234375 695.6875 564.25 C692.60847176 566.86201514 689.60003124 569.52698563 686.64306641 572.27685547 C680.60943063 577.88353728 674.39887676 583.20103529 667.9375 588.3125 C667.29039062 588.82683594 666.64328125 589.34117187 665.9765625 589.87109375 C642.0021061 608.88380368 616.72036652 625.50800966 589.9375 640.3125 C589.21820312 640.71275391 588.49890625 641.11300781 587.7578125 641.52539062 C534.46363503 671.03829834 474.7521435 689.33773091 414.5625 697.5625 C413.46099609 697.71364258 412.35949219 697.86478516 411.22460938 698.02050781 C389.39077233 700.82085229 367.62362717 701.69036028 345.625 701.625 C344.31322784 701.62284485 343.00145569 701.6206897 341.64993286 701.61846924 C308.39469106 701.54455154 276.55107692 698.73326945 243.9375 692.3125 C242.73303223 692.07660156 241.52856445 691.84070313 240.28759766 691.59765625 C187.00880663 680.93738098 135.45779972 661.13716613 88.53271484 633.81884766 C86.19317745 632.46090356 83.84370759 631.12308556 81.48828125 629.79296875 C57.01562932 615.86154245 34.11723281 598.83695658 12.9375 580.3125 C12.20789063 579.68214844 11.47828125 579.05179688 10.7265625 578.40234375 C6.16690522 574.44643555 1.69705999 570.39286356 -2.765625 566.328125 C-5.00164975 564.29823474 -5.00164975 564.29823474 -7.359375 562.671875 C-8.20242187 561.99898437 -8.20242187 561.99898437 -9.0625 561.3125 C-9.0625 560.6525 -9.0625 559.9925 -9.0625 559.3125 C-9.65184326 559.04840332 -10.24118652 558.78430664 -10.84838867 558.51220703 C-13.14697149 557.26672948 -14.65189517 555.96697786 -16.48828125 554.1171875 C-17.11645752 553.48780273 -17.74463379 552.85841797 -18.3918457 552.20996094 C-19.04628662 551.54254883 -19.70072754 550.87513672 -20.375 550.1875 C-21.05071045 549.50461914 -21.7264209 548.82173828 -22.42260742 548.11816406 C-26.21378291 544.26497371 -29.9239376 540.37597348 -33.41015625 536.2421875 C-35.47808631 533.82715807 -37.64857434 531.51684275 -39.8125 529.1875 C-44.56125287 523.9796532 -48.91483192 518.53550397 -53.22265625 512.9609375 C-55.09346799 510.54186232 -56.99478548 508.15397526 -58.93359375 505.7890625 C-77.57060982 483.02363292 -92.94861937 458.07119697 -107.0625 432.3125 C-107.5678125 431.3951709 -108.073125 430.4778418 -108.59375 429.53271484 C-136.89626919 377.83823725 -154.45107686 320.4562738 -162.875 262.25 C-162.97445923 261.57093597 -163.07391846 260.89187195 -163.1763916 260.19223022 C-166.39207345 237.92692236 -167.39714082 215.73177539 -167.32324219 193.25683594 C-167.31180382 189.75220101 -167.31867641 186.24786813 -167.33009624 182.74324322 C-167.36442658 170.43161292 -167.39108692 158.11754561 -166.25390625 145.84765625 C-166.18741882 145.08519592 -166.1209314 144.3227356 -166.0524292 143.53717041 C-165.30459602 136.76097617 -162.90192885 130.75553523 -159.57421875 124.828125 C-159.17380371 124.10689453 -158.77338867 123.38566406 -158.36083984 122.64257812 C-157.9323877 121.87365234 -157.50393555 121.10472656 -157.0625 120.3125 C-156.10999936 118.53682171 -155.15821374 116.76075974 -154.20703125 114.984375 C-148.5312022 104.54556217 -142.37689149 94.46559673 -135.8125 84.5625 C-134.85730469 83.11798462 -134.85730469 83.11798462 -133.8828125 81.64428711 C-129.31634963 74.87034817 -124.32639618 68.55578222 -119.0625 62.3125 C-118.49337891 61.63155273 -117.92425781 60.95060547 -117.33789062 60.24902344 C-106.24228014 47.02616533 -106.24228014 47.02616533 -100.0625 41.3125 C-99.25232422 40.54679687 -99.25232422 40.54679687 -98.42578125 39.765625 C-69.25766316 13.19163455 -39.20297867 -0.13597391 0 0 Z " fill="#1B7981" transform="translate(167.0625,322.6875)"/>
<path d="M0 0 C1.16121648 -0.00367669 2.32243295 -0.00735338 3.51883781 -0.01114148 C6.71061957 -0.02018763 9.90237111 -0.02486001 13.09416342 -0.02753079 C16.54900485 -0.03146702 20.00383185 -0.04104232 23.45866394 -0.04974365 C31.7834816 -0.06940917 40.10830029 -0.07955896 48.43313533 -0.08847144 C51.57481104 -0.09198563 54.71648577 -0.09613166 57.85816065 -0.1003111 C71.72966649 -0.11876431 85.60117235 -0.13451377 99.47268867 -0.14220905 C102.85946784 -0.14411857 106.24624699 -0.14603897 109.63302612 -0.147995 C110.47467154 -0.14847874 111.31631695 -0.14896248 112.18346678 -0.14946087 C125.81246246 -0.15775841 139.44137031 -0.18309709 153.07032765 -0.21557567 C167.09534363 -0.24872313 181.12031504 -0.2666645 195.14537036 -0.26985329 C203.00692323 -0.27201065 210.86834776 -0.28064586 218.72986221 -0.30631447 C225.42508602 -0.32812639 232.12015025 -0.33602052 238.81540556 -0.32634769 C242.224285 -0.32183379 245.63257161 -0.32574475 249.04144859 -0.34310913 C272.88338192 -0.45769901 294.39467665 1.46489814 312.97189331 18.14717102 C313.79302612 18.87549133 314.61415894 19.60381165 315.46017456 20.35420227 C329.3033164 33.35709271 337.71964208 51.3457663 338.40939331 70.39717102 C337.80017811 90.64748428 329.61246064 108.3520449 314.97189331 122.14717102 C314.18040894 122.89611633 313.38892456 123.64506165 312.57345581 124.41670227 C299.67036486 135.62653045 282.09935618 141.29159006 265.17141724 141.29866028 C264.40335306 141.30289269 263.63528888 141.3071251 262.84395003 141.31148577 C260.27624417 141.32447155 257.70856939 141.33052915 255.14083862 141.33662415 C253.29272781 141.34457471 251.44461884 141.3529633 249.59651184 141.36175537 C245.60417474 141.3798299 241.61184177 141.39484488 237.61948395 141.40753174 C231.21151794 141.42798044 224.80359461 141.4556353 218.3956604 141.48420715 C205.8240768 141.53927979 193.2524705 141.58708233 180.6808548 141.63414764 C170.56562251 141.67223262 160.4503969 141.71200337 150.33517456 141.75263977 C149.23370811 141.75705645 148.13224165 141.76147312 146.99739742 141.76602364 C128.32060803 141.84152653 109.64394845 141.93522788 90.9673233 142.04400635 C79.50690289 142.11018023 68.04661186 142.16234953 56.5860455 142.19482374 C48.8798284 142.21801361 41.17383973 142.25923131 33.4677875 142.31465197 C29.0439556 142.34593706 24.62046085 142.36941037 20.19651031 142.37115479 C16.13623868 142.37292744 12.07675556 142.39787058 8.01671124 142.44029236 C6.5602941 142.4515969 5.10378344 142.45483461 3.64733601 142.44854736 C-15.17832195 142.3790874 -33.23053301 148.82749427 -47.01248169 161.97138977 C-61.61468088 177.73384122 -67.93142807 195.42131907 -67.37185669 216.62763977 C-66.46403517 235.49411631 -58.28657686 252.18394045 -44.79373169 265.32295227 C-39.97080106 269.4904175 -34.73708048 272.56812732 -29.09060669 275.45967102 C-28.4588855 275.785401 -27.82716431 276.11113098 -27.17630005 276.44673157 C-15.95845929 281.91555339 -5.07956823 282.58509512 7.17062378 282.54780579 C8.88512651 282.55355822 10.59962519 282.56064503 12.31411743 282.56895447 C15.98680244 282.58399356 19.65934278 282.58984822 23.33205795 282.58842659 C29.15024533 282.58638111 34.96824032 282.60603929 40.78637695 282.62860107 C52.09117264 282.66947179 63.39595282 282.68815091 74.70080566 282.70477295 C89.08268195 282.72716376 103.46451314 282.76086677 117.84631646 282.81197208 C123.6189785 282.831784 129.39153922 282.84146636 135.16423392 282.84292424 C138.76820429 282.84569299 142.37211953 282.85656308 145.97606659 282.86943436 C147.63476927 282.87367957 149.29348471 282.87459764 150.9521904 282.87175941 C164.35364865 282.85147532 176.77584429 283.9746771 189.47189331 288.52217102 C191.29697334 289.15495424 193.12249343 289.78646968 194.94845581 290.41670227 C196.24638062 290.86843811 196.24638062 290.86843811 197.57052612 291.32929993 C200.63877502 292.37430133 203.7362662 293.29952457 206.84689331 294.20967102 C219.84536782 298.17445668 231.97605444 303.82387827 243.97189331 310.14717102 C245.68119019 311.03662415 245.68119019 311.03662415 247.42501831 311.94404602 C262.0119021 319.88202464 275.62865056 330.06968447 287.48556519 341.69160461 C289.11887933 343.29111495 290.77226741 344.86854561 292.42501831 346.44795227 C327.26952071 380.11946206 348.69208133 426.16997327 353.97189331 474.14717102 C354.06470581 474.89232971 354.15751831 475.6374884 354.25314331 476.40522766 C360.44993206 527.30188814 342.167332 581.30779168 311.14767456 621.38154602 C310.42966675 622.29420227 309.71165894 623.20685852 308.97189331 624.14717102 C308.346698 624.97732727 307.72150269 625.80748352 307.07736206 626.66279602 C294.91105234 642.30862233 280.12547975 655.75405211 263.97189331 667.14717102 C263.37022339 667.58287415 262.76855347 668.01857727 262.14865112 668.46748352 C238.20329605 685.76651012 211.11845599 696.42200672 182.47189331 702.83467102 C181.58372925 703.0371344 180.69556519 703.23959778 179.78048706 703.44819641 C162.05817344 707.27156245 144.55037801 707.45036855 126.50094604 707.4535675 C123.75595475 707.46013445 121.01097475 707.46958439 118.26599121 707.47879028 C110.8550033 707.50145588 103.44404434 707.50953929 96.03302646 707.51461673 C91.39496425 707.51789229 86.75691019 707.52442534 82.11885262 707.53161812 C69.2429389 707.55115195 56.36703266 707.56757762 43.49110317 707.57049465 C42.2599381 707.57077601 42.2599381 707.57077601 41.00390101 707.57106305 C39.34052853 707.57142926 37.67715605 707.57179296 36.01378357 707.57215416 C35.18825324 707.57233697 34.36272291 707.57251978 33.51217651 707.57270813 C32.68562426 707.57288868 31.859072 707.57306923 31.0074727 707.57325525 C17.60448139 707.57679957 4.20165043 707.60385249 -9.20128525 707.64120602 C-23.00614073 707.67936829 -36.81091671 707.69865266 -50.61582607 707.69895416 C-58.34929159 707.69953658 -66.08256515 707.70789023 -73.81598091 707.73695183 C-80.39657021 707.76157094 -86.97689733 707.76867739 -93.55752034 707.7537043 C-96.9076949 707.74658051 -100.2569355 707.74996658 -103.60711861 707.7701149 C-127.35079004 707.90414202 -147.12134384 704.21809305 -164.89871216 687.42158508 C-178.46131241 674.00136228 -187.26898286 655.39003356 -187.52810669 636.14717102 C-187.24990062 617.17627642 -178.72547269 600.29259424 -165.78982544 586.81513977 C-151.03512788 572.6400048 -132.15077471 565.800235 -111.86607361 565.89561462 C-110.78597147 565.89264449 -109.70586933 565.88967435 -108.59303683 565.8866142 C-104.99687556 565.87901471 -101.40087959 565.88545168 -97.80471802 565.89179993 C-95.21677541 565.8890481 -92.62883365 565.88536703 -90.04089355 565.88082886 C-84.47804213 565.87222173 -78.9152225 565.87038155 -73.35236549 565.87277603 C-65.29321441 565.87588448 -57.23413304 565.86419657 -49.17499956 565.84822623 C-36.07582993 565.82229767 -22.97666024 565.8022627 -9.87747192 565.78877258 C-9.09454868 565.78796221 -8.31162544 565.78715184 -7.50497725 565.78631692 C3.59718261 565.77510347 14.69933745 565.76981562 25.80150221 565.76692979 C26.58290949 565.7667258 27.36431678 565.76652181 28.16940308 565.76631165 C29.34007139 565.76601174 29.34007139 565.76601174 30.53438958 565.76570578 C43.58080967 565.76196391 56.627154 565.742818 69.67353612 565.71121728 C77.70474146 565.69237552 85.73575181 565.68629599 93.76697306 565.69703446 C99.93200417 565.70414058 106.09683382 565.69049234 112.26182938 565.66941643 C114.77918441 565.66411564 117.29656464 565.66555478 119.81390953 565.67445183 C132.79884846 565.71662182 144.65866934 565.60183188 156.97189331 561.14717102 C158.06220447 560.7588592 159.15251562 560.37054737 160.27586651 559.97046852 C178.68697811 553.11754104 191.22792743 540.16457736 199.72189331 522.77217102 C206.94762778 505.81673469 207.50984264 486.41302482 200.97189331 469.14717102 C193.26159418 451.79344301 179.51152667 437.53838313 161.7885437 430.57759094 C154.23921528 427.72181357 147.44365488 426.02477382 139.31314087 426.01586914 C138.6689071 426.01375343 138.02467333 426.01163771 137.36091733 426.00945789 C135.21527473 426.00349629 133.06969159 426.00445535 130.92404175 426.00532532 C129.37915447 426.00229076 127.83426809 425.99876849 126.28938293 425.99479675 C122.96480969 425.98692192 119.6402471 425.98176779 116.3156662 425.97850609 C111.03203612 425.97256298 105.74847228 425.95598539 100.46487427 425.93716431 C98.64937977 425.9308266 96.83388523 425.92450098 95.01839066 425.91818714 C94.10899436 425.91502133 93.19959805 425.91185552 92.26264429 425.90859377 C79.97189188 425.8667127 67.68116924 425.83363538 55.39035034 425.82124329 C47.08964438 425.81278847 38.78910203 425.79002032 30.48847795 425.75188762 C26.11026191 425.73235758 21.73228907 425.71964352 17.35402679 425.72472191 C-8.03235365 425.748689 -32.4863622 424.40276975 -57.02810669 417.14717102 C-57.7171106 416.94398254 -58.4061145 416.74079407 -59.11599731 416.53144836 C-91.2748512 406.87658169 -121.09800201 389.9858046 -145.77029419 367.21748352 C-147.79285923 365.36288236 -149.86294653 363.59681941 -151.96560669 361.83467102 C-187.15009666 330.94268883 -211.9324422 281.2554643 -215.71170044 234.71357727 C-219.51427454 176.04993413 -202.4640733 119.9379783 -163.50222778 75.4030304 C-160.08417324 71.5806437 -156.57479997 67.84999167 -153.02810669 64.14717102 C-152.31912231 63.39693665 -151.61013794 62.64670227 -150.87966919 61.87373352 C-145.65394074 56.47736904 -139.94437951 51.76621292 -134.02810669 47.14717102 C-133.49362915 46.72564758 -132.95915161 46.30412415 -132.40847778 45.86982727 C-103.37902268 23.13865941 -65.99965848 6.01056373 -29.04763794 2.47138977 C-25.98424669 2.25096149 -25.98424669 2.25096149 -23.02810669 1.14717102 C-15.37865815 0.10130841 -7.70728748 -0.00133386 0 0 Z " fill="#1B7981" transform="translate(442.0281066894531,159.8528289794922)"/>
<path d="M0 0 C0.95185181 0.00016113 1.90370361 0.00032227 2.88439941 0.00048828 C20.05129315 0.02060096 36.9098987 1.12887855 53.9375 3.3125 C54.14705991 8.44671771 53.41210597 12.415086 51.9375 17.3125 C49.9063147 29.12346635 49.72835658 41.04590459 49.6875 53 C49.67973541 54.0319046 49.67973541 54.0319046 49.67181396 55.08465576 C49.58947814 68.97872288 50.97562236 82.50398531 54.125 96.0625 C54.33350586 96.97644531 54.54201172 97.89039063 54.75683594 98.83203125 C56.54512983 106.33615628 58.9149931 113.56900065 61.61401367 120.79199219 C64.16923532 127.64127635 65.79645132 132.25953714 62.73901367 139.17236328 C62.41263916 139.8786084 62.08626465 140.58485352 61.75 141.3125 C48.82238062 171.04570354 48.37383127 203.93331256 60.03125 234.15625 C62.04452786 238.94646283 64.52976443 243.47411843 67.10546875 247.98046875 C68.9375 251.3125 68.9375 251.3125 70.39453125 254.7890625 C72.08603089 258.65167687 74.09620397 262.00745131 76.4375 265.5 C76.86530762 266.14348389 77.29311523 266.78696777 77.73388672 267.44995117 C81.24659211 272.59341958 85.18595432 277.17825973 89.53320312 281.6315918 C92.9375 285.13257366 92.9375 285.13257366 92.9375 287.3125 C93.50855469 287.56 94.07960938 287.8075 94.66796875 288.0625 C97.29273969 289.50815697 99.09606226 291.22924416 101.25 293.3125 C114.78688607 305.64214915 130.83609057 313.72945003 148.0625 319.625 C148.72934814 319.85541992 149.39619629 320.08583984 150.08325195 320.32324219 C162.23350779 324.26574331 174.93884251 325.96257101 187.625 327 C188.37752045 327.06253967 189.13004089 327.12507935 189.90536499 327.18951416 C225.57292119 330.03217302 262.44902192 330.25376433 297.97363281 325.6796875 C300.70761805 325.34097961 303.43462927 325.07276992 306.1796875 324.84375 C316.95851269 323.93199903 327.40925744 321.96205597 337.98828125 319.7265625 C341.81494119 318.92075148 345.64255901 318.18246699 349.4987793 317.53588867 C365.54488633 314.81879063 381.24919612 310.92173271 397.00860596 306.91229248 C399.83305042 306.19524606 402.65903347 305.48438308 405.48512077 304.77384377 C421.22479323 300.84132122 421.22479323 300.84132122 436.90869141 296.69482422 C437.78278152 296.45718857 438.65687164 296.21955292 439.55744934 295.97471619 C441.10291321 295.55121172 442.64639679 295.12036044 444.1870575 294.67970276 C448.53365355 293.48669579 452.43407438 292.96189821 456.9375 293.3125 C459.01171875 295.21875 459.01171875 295.21875 460.625 297.8125 C461.20121094 298.73289062 461.77742187 299.65328125 462.37109375 300.6015625 C462.88800781 301.49617188 463.40492188 302.39078125 463.9375 303.3125 C464.34097656 303.98023438 464.74445312 304.64796875 465.16015625 305.3359375 C472.11133367 317.86391505 473.11534344 334.21235651 470.12890625 348.0625 C463.82815727 365.85285007 451.62381602 379.32824595 434.90625 387.859375 C418.42673009 394.93391637 399.28738677 393.60444171 381.72387695 393.58374023 C379.23327465 393.58813664 376.74267382 393.59344209 374.2520752 393.59957886 C368.92399838 393.61100594 363.59596305 393.61672653 358.26787758 393.61746025 C350.54838236 393.61879696 342.82895816 393.63400357 335.10948827 393.65295542 C322.55827118 393.68367636 310.00705229 393.7078986 297.45581055 393.72583008 C296.70731746 393.72690276 295.95882438 393.72797544 295.18764969 393.72908062 C286.83396372 393.74090518 278.48027702 393.75111362 270.12658691 393.75952148 C267.09374998 393.76259599 264.06091306 393.7656847 261.02807617 393.76879883 C259.90536547 393.76994684 259.90536547 393.76994684 258.75997374 393.77111804 C246.24667397 393.78423291 233.73342618 393.80891164 221.22016495 393.84254223 C213.52626396 393.86273077 205.83247441 393.87313576 198.13854673 393.87055302 C192.2380553 393.86938856 186.33766299 393.8836311 180.43720245 393.90336227 C178.02949594 393.90893418 175.62177132 393.90947266 173.21406364 393.90442467 C157.25459055 393.87448687 142.24538655 394.10754371 127.5625 401.125 C126.80066406 401.47828369 126.03882813 401.83156738 125.25390625 402.19555664 C105.00008582 411.78181491 91.06838632 427.59992205 82.9375 448.3125 C80.05882977 456.69949079 78.7941614 464.93661838 78.8125 473.8125 C78.80992187 475.0603125 78.80734375 476.308125 78.8046875 477.59375 C78.93479023 481.23662631 79.39560718 484.7113612 79.9375 488.3125 C54.67884684 488.00081359 29.46996142 487.35018464 4.25 485.875 C2.64650696 485.78283707 2.64650696 485.78283707 1.01062012 485.68881226 C-12.25707051 484.91744976 -25.4779904 483.89238079 -38.70016479 482.55130005 C-41.62408233 482.25573164 -44.54910371 481.97232532 -47.47425842 481.6893158 C-50.64998491 481.38105452 -53.82493654 481.0650063 -57 480.75 C-58.92875977 480.56147461 -58.92875977 480.56147461 -60.89648438 480.36914062 C-62.75563477 480.18448242 -62.75563477 480.18448242 -64.65234375 479.99609375 C-65.74409912 479.88837646 -66.83585449 479.78065918 -67.96069336 479.66967773 C-71.01751596 479.31767998 -74.03247724 478.84553584 -77.0625 478.3125 C-77.3925 478.9725 -77.7225 479.6325 -78.0625 480.3125 C-88.32929895 464.61746119 -98.09795686 448.79615387 -107.0625 432.3125 C-107.56201172 431.40387207 -108.06152344 430.49524414 -108.57617188 429.55908203 C-136.88930251 377.85724367 -154.44939171 320.46791761 -162.875 262.25 C-162.97445923 261.57093597 -163.07391846 260.89187195 -163.1763916 260.19223022 C-166.39207345 237.92692236 -167.39714082 215.73177539 -167.32324219 193.25683594 C-167.31180382 189.75220101 -167.31867641 186.24786813 -167.33009624 182.74324322 C-167.36442658 170.43161292 -167.39108692 158.11754561 -166.25390625 145.84765625 C-166.18741882 145.08519592 -166.1209314 144.3227356 -166.0524292 143.53717041 C-165.30459602 136.76097617 -162.90192885 130.75553523 -159.57421875 124.828125 C-159.17380371 124.10689453 -158.77338867 123.38566406 -158.36083984 122.64257812 C-157.9323877 121.87365234 -157.50393555 121.10472656 -157.0625 120.3125 C-156.10999936 118.53682171 -155.15821374 116.76075974 -154.20703125 114.984375 C-148.5312022 104.54556217 -142.37689149 94.46559673 -135.8125 84.5625 C-134.85730469 83.11798462 -134.85730469 83.11798462 -133.8828125 81.64428711 C-129.31634963 74.87034817 -124.32639618 68.55578222 -119.0625 62.3125 C-118.49337891 61.63155273 -117.92425781 60.95060547 -117.33789062 60.24902344 C-106.24228014 47.02616533 -106.24228014 47.02616533 -100.0625 41.3125 C-99.25232422 40.54679687 -99.25232422 40.54679687 -98.42578125 39.765625 C-69.25766316 13.19163455 -39.20297867 -0.13597391 0 0 Z " fill="#59B5C0" transform="translate(167.0625,322.6875)"/>
<path d="M0 0 C14.77289106 11.2640116 24.7224216 24.14282152 28.26953125 42.73046875 C30.08530013 58.64814359 25.04265745 74.7679365 15.203125 87.37890625 C5.21288094 98.95021503 -8.26756268 108.61913983 -23.73046875 110.73046875 C-26.2838506 110.82618597 -28.80997063 110.87832085 -31.36282349 110.87763977 C-32.48631598 110.8831548 -32.48631598 110.8831548 -33.6325053 110.88878125 C-36.13277753 110.89975966 -38.63300812 110.90365222 -41.13330078 110.9074707 C-42.93109771 110.91374063 -44.72889337 110.9203879 -46.52668762 110.92738342 C-52.43054305 110.9483939 -58.3343986 110.95879499 -64.23828125 110.96875 C-66.28135058 110.97280112 -68.32441979 110.97691814 -70.36748886 110.98110008 C-79.98584624 111.00015888 -89.604196 111.01437868 -99.22256863 111.02271205 C-110.2584786 111.03243476 -121.29418533 111.0586202 -132.33002388 111.09921294 C-140.89696753 111.12962055 -149.46385384 111.14420468 -158.03085029 111.14749306 C-163.12791912 111.14981908 -168.22477115 111.15845097 -173.32178116 111.18395424 C-200.87813684 111.31463796 -228.08728243 111.08011194 -254.58203125 102.43115234 C-256.05166159 101.95185245 -257.5259493 101.4866649 -259.00390625 101.03369141 C-286.13350714 92.71342137 -312.32668858 78.42937561 -333.73046875 59.73046875 C-334.59929687 58.98152344 -335.468125 58.23257813 -336.36328125 57.4609375 C-340.8945444 53.47791756 -345.05016492 49.51486372 -348.73046875 44.73046875 C-347.79605957 44.91005127 -347.79605957 44.91005127 -346.84277344 45.09326172 C-261.75629522 61.04504611 -168.84887298 38.68750583 -65.51708984 -3.66113281 C-44.81528691 -12.52268428 -19.3471597 -12.82120123 0 0 Z " fill="#FEFEEC" transform="translate(639.73046875,463.26953125)"/>
<path d="M0 0 C1.24956482 0.00027191 2.49912964 0.00054382 3.78656006 0.00082397 C35.95659386 0.03286431 67.77697191 1.65699098 99.75 5.1875 C100.72710938 5.29143066 101.70421875 5.39536133 102.7109375 5.50244141 C126.47057593 8.04395735 150.10671635 11.75615671 173.75 15.1875 C173.89217867 20.63679995 173.48807791 25.56596559 172.28125 30.89453125 C172.12528351 31.6099408 171.96931702 32.32535034 171.80862427 33.06243896 C171.29939174 35.37739348 170.77595997 37.68879271 170.25 40 C170.07281433 40.78986298 169.89562866 41.57972595 169.71307373 42.39352417 C160.93733444 81.40649835 160.93733444 81.40649835 155.75 89.1875 C155.09515625 88.74019531 154.4403125 88.29289063 153.765625 87.83203125 C147.02237569 83.3651048 140.36083073 79.92204471 132.75 77.1875 C131.78578125 76.83945312 130.8215625 76.49140625 129.828125 76.1328125 C100.75452053 66.80322301 66.26448836 65.04585264 35.90234375 65.01953125 C34.51534494 65.01630091 33.12834644 65.01293567 31.74134827 65.00944519 C28.85302952 65.00351318 25.96474041 65.00159899 23.07641602 65.00219727 C20.16294106 65.00227827 17.2496242 64.99536643 14.33618164 64.98168945 C-2.29069969 64.90467821 -18.72168211 65.11456025 -35.25 67.1875 C-35.31469482 66.47021729 -35.37938965 65.75293457 -35.44604492 65.01391602 C-36.67694189 51.71705902 -38.12477184 38.53987414 -40.75 25.4375 C-41.05200317 23.91491577 -41.05200317 23.91491577 -41.36010742 22.36157227 C-42.26713007 18.02729197 -43.26794395 13.91571487 -44.90625 9.796875 C-46.14446258 6.47097841 -46.37717292 4.63152017 -46.25 1.1875 C-30.8315611 0.16470432 -15.44911733 -0.01266804 0 0 Z " fill="#59B5BF" transform="translate(842.25,584.8125)"/>
<path d="M0 0 C1.0189032 0.00060425 2.0378064 0.0012085 3.08758545 0.00183105 C25.70931468 0.03824537 47.65936638 0.91717348 69.75 6.1875 C70.73097656 6.41179688 71.71195313 6.63609375 72.72265625 6.8671875 C91.0673267 11.46044347 108.99090925 18.6814395 124.75 29.1875 C124.42 33.1475 124.09 37.1075 123.75 41.1875 C123.42 40.1975 123.09 39.2075 122.75 38.1875 C121.44546875 38.21239502 120.1409375 38.23729004 118.796875 38.26293945 C114.09758222 38.26001615 109.63083282 37.73298881 105 36.98046875 C103.79021233 36.79287239 103.79021233 36.79287239 102.5559845 36.60148621 C100.84050709 36.3352714 99.12544964 36.06633793 97.41079712 35.79486084 C92.8847296 35.08066941 88.35437429 34.3947321 83.82421875 33.70703125 C82.93441818 33.5716394 82.04461761 33.43624756 81.12785339 33.29675293 C62.90017302 30.5328622 44.60402071 28.74308174 26.25 27.0625 C25.32111969 26.97587097 24.39223938 26.88924194 23.43521118 26.79998779 C-3.77376652 24.28079956 -30.89703116 24.04744111 -58.19732666 24.11883545 C-62.61657214 24.1292526 -67.03582378 24.13367155 -71.45507812 24.13867188 C-80.05340173 24.14924632 -88.65169628 24.166205 -97.25 24.1875 C-97.58 24.8475 -97.91 25.5075 -98.25 26.1875 C-99.08719383 23.89717689 -99.9198929 21.60539043 -100.75 19.3125 C-100.98847656 18.66152344 -101.22695313 18.01054688 -101.47265625 17.33984375 C-103.25 12.4140625 -103.25 12.4140625 -103.25 10.1875 C-100.66680083 9.72840062 -98.08344468 9.27021422 -95.5 8.8125 C-94.78972656 8.68617188 -94.07945312 8.55984375 -93.34765625 8.4296875 C-91.81897615 8.15912465 -90.28980532 7.8913253 -88.76025391 7.62573242 C-87.05810469 7.32857644 -85.35727115 7.02380222 -83.65771484 6.7121582 C-75.10535431 5.19648408 -66.51367108 4.26977507 -57.87841797 3.38256836 C-55.38589651 3.12612111 -52.89410741 2.86330754 -50.40234375 2.59960938 C-45.68714634 2.10471396 -40.96976847 1.63661362 -36.25 1.1875 C-35.0846875 1.07639893 -33.919375 0.96529785 -32.71875 0.85083008 C-21.82839637 -0.05642865 -10.92031713 -0.01192295 0 0 Z " fill="#ACDAD7" transform="translate(893.25,561.8125)"/>
<path d="M0 0 C3.65208029 3.49694767 6.67743032 7.10276081 9.6875 11.1875 C32.97318107 41.90810589 69.86088195 56.93834746 107 63 C108.25039063 63.21269531 109.50078125 63.42539062 110.7890625 63.64453125 C125.60412548 65.96879057 140.59588391 66.23753393 155.5625 66.25 C156.84483521 66.25151062 156.84483521 66.25151062 158.15307617 66.25305176 C193.55917233 66.22532193 229.55688034 62.99208738 264.26953125 55.93359375 C268.99343005 54.97794776 273.73631191 54.22587317 278.5 53.5 C284.78097134 52.540314 291.03269598 51.47889992 297.2734375 50.28515625 C298.16207489 50.11536758 299.05071228 49.94557892 299.96627808 49.77064514 C311.44813825 47.55432112 322.89096972 45.14817727 334.33300781 42.73608398 C338.15349251 41.93149955 341.97514231 41.13261726 345.796875 40.33398438 C348.26309305 39.8154475 350.72924145 39.29657925 353.1953125 38.77734375 C354.88154221 38.42566383 354.88154221 38.42566383 356.60183716 38.06687927 C362.68114929 36.77961405 368.62254359 35.31622885 374.55563354 33.46095276 C377.36919295 32.93037848 379.26450415 33.20155809 382 34 C384.02621949 35.806087 385.36480863 37.80417159 387 40 C385.87464844 40.24234375 384.74929688 40.4846875 383.58984375 40.734375 C382.03902304 41.07273588 380.48824409 41.41128817 378.9375 41.75 C378.20466797 41.90726563 377.47183594 42.06453125 376.71679688 42.2265625 C370.51993469 43.58621159 364.40201789 45.20408382 358.27709961 46.85351562 C315.03971807 58.48229062 271.5483533 68.87575666 226.9375 73.5625 C225.19243164 73.75102539 225.19243164 73.75102539 223.41210938 73.94335938 C211.23378202 75.23777258 199.157417 76.15549041 186.90625 76.203125 C185.69200851 76.21004868 184.47776703 76.21697235 183.22673035 76.22410583 C179.31778707 76.24131652 175.40897941 76.24769551 171.5 76.25 C170.83489536 76.25073643 170.16979073 76.25147285 169.4845314 76.2522316 C152.52132233 76.26753521 135.60132966 76.12011708 118.6875 74.6875 C117.61387207 74.59921936 117.61387207 74.59921936 116.51855469 74.50915527 C103.84710896 73.42876494 91.18146341 71.47703619 79.125 67.3125 C78.38233887 67.05903809 77.63967773 66.80557617 76.87451172 66.54443359 C59.11883271 60.29338461 44.38282019 51.13404048 30 39 C28.91671129 38.14577674 27.83338693 37.29159869 26.75 36.4375 C23.13550737 33.23374517 20.08616964 29.70732666 17 26 C16.3709375 25.25878906 15.741875 24.51757812 15.09375 23.75390625 C11.05619749 18.87519696 7.43944448 13.80956585 4 8.5 C3.40276123 7.58226807 3.40276123 7.58226807 2.79345703 6.64599609 C0 2.25169702 0 2.25169702 0 0 Z " fill="#ACDAD6" transform="translate(236,576)"/>
<path d="M0 0 C-0.31146472 1.89600369 -0.62421717 3.79179587 -0.9375 5.6875 C-1.11152344 6.74324219 -1.28554687 7.79898437 -1.46484375 8.88671875 C-1.93167121 11.60249604 -2.44422616 14.30124235 -3 17 C-3.495 16.01 -3.495 16.01 -4 15 C-5.06476563 14.93941406 -6.12953125 14.87882812 -7.2265625 14.81640625 C-8.69271121 14.73182075 -10.15885688 14.6471824 -11.625 14.5625 C-12.31851563 14.52318359 -13.01203125 14.48386719 -13.7265625 14.44335938 C-14.4484375 14.40146484 -15.1703125 14.35957031 -15.9140625 14.31640625 C-17.11349487 14.24679687 -17.11349487 14.24679687 -18.3371582 14.17578125 C-20.20430676 14.05252582 -22.07007998 13.90740634 -23.93432617 13.74609375 C-34.00777118 12.90444821 -44.03744172 12.84754862 -54.14086914 12.86962891 C-57.06076228 12.87499681 -59.98050208 12.86964853 -62.90039062 12.86328125 C-72.6503702 12.86017547 -82.2925859 12.99598191 -92 14 C-81.67898845 7.11932563 -66.03982664 6.08023085 -54 4 C-52.96117676 3.81373047 -51.92235352 3.62746094 -50.85205078 3.43554688 C-33.78759765 0.41438338 -17.31760197 -0.53621252 0 0 Z " fill="#ACDAD7" transform="translate(225,311)"/>
</svg>
